<svg id="Layer_1" data-name="Layer 1" xmlns="http://www.w3.org/2000/svg" viewBox="0 0 300 300"><defs><style>.cls-1{fill:#8a1702;}.cls-2{fill:none;stroke:#fff;stroke-width:1.72px;}.cls-3{fill:#fff;}</style></defs><path class="cls-1" d="M150,298.26A148.26,148.26,0,1,0,1.74,150,148.26,148.26,0,0,0,150,298.26"/><circle class="cls-2" cx="150" cy="150" r="142.32"/><path class="cls-3" d="M42.57,152.46c-2.19-2.19-5.6-2.31-9.46,1.54s-5.13,11.79-4.5,12.42c.79.79,8.56-.66,12.41-4.51s3.73-7.27,1.55-9.45"/><path class="cls-3" d="M42.57,147.54c-2.19,2.19-5.6,2.31-9.46-1.54s-5.13-11.79-4.5-12.42c.79-.79,8.56.66,12.41,4.51s3.73,7.27,1.55,9.45"/><path class="cls-3" d="M33.4,150c0-3.09-2.33-5.59-7.78-5.59s-12,4.7-12,5.59c0,1.12,6.51,5.59,12,5.59s7.78-2.5,7.78-5.59"/><path class="cls-3" d="M256.89,152.46c2.19-2.19,5.6-2.31,9.46,1.54s5.13,11.79,4.5,12.42c-.79.79-8.56-.65-12.41-4.51s-3.73-7.27-1.55-9.45"/><path class="cls-3" d="M256.89,147.54c2.19,2.19,5.6,2.31,9.46-1.54s5.13-11.79,4.5-12.42c-.79-.79-8.56.66-12.41,4.51s-3.73,7.27-1.55,9.45"/><path class="cls-3" d="M266.06,150c0-3.09,2.33-5.59,7.78-5.59s12,4.7,12,5.59c0,1.12-6.51,5.59-12,5.59s-7.78-2.5-7.78-5.59"/><circle class="cls-2" cx="149.73" cy="150" r="98.57" transform="translate(-0.84 299.16) rotate(-89.78)"/><path class="cls-3" d="M220,187.88h0c.16-.17.1-.11,0,0m-.31-1.57a.82.82,0,0,0,.1.79c.37.63-.35.86-.77.49,0-.34.33-.44.38-.68l-.2.25a.49.49,0,0,1,.05-.47s-.06.05-.09.08a11.64,11.64,0,0,0,.31-1.56c.27.12.77,1.26.22,1.1m-2.47,4.39h0Zm-.33.39a4,4,0,0,0,.26-.32.32.32,0,0,1-.26.32M194,194.89a1.15,1.15,0,0,0-.22-.37l.38-.22Zm-5.69,3.41-.41.44a1.65,1.65,0,0,1,1.1-1.46,2.29,2.29,0,0,1-.49,1.08Zm-3.88,1.75a.17.17,0,0,1-.11-.06l.55-.32.19.31-.11-.36.54-.31a1.28,1.28,0,0,1,.22.62,6.1,6.1,0,0,1-1.28.12m-2.16,1.12.45-.26a1.48,1.48,0,0,1-.27.4.26.26,0,0,0-.18-.14m-3.52,2.49c-.92.45-1.42,2.37-2,.83.41-.35.78-.26,1.09-.45l-.45.12a1.13,1.13,0,0,1,.58-.43.54.54,0,0,0-.19,0l2.17-1.26c0,.29-.95,1.67-1.19,1.15m-1.43,1.68v0c.3-.06.19,0,0,0m-5.46,1.86v0l0,0Zm-.71.39.58-.34a.76.76,0,0,1-.58.34M161,220.21a.82.82,0,0,0,.1.79c.37.63-.35.86-.77.5,0-.36.33-.45.38-.69l-.19.25a.46.46,0,0,1,0-.47.2.2,0,0,0-.08.08,13.43,13.43,0,0,0,.3-1.56c.27.12.77,1.26.22,1.1m.31,1.57h0c.15-.17.09-.11,0,0m-2.78,2.82h0Zm-.33.39a4,4,0,0,0,.26-.32.31.31,0,0,1-.26.32M120.82,204.4l-.07-.11c.27.07.17.09.07.11M93.5,104.6c0,.06,0,.16-.13.26l.1,0a.21.21,0,0,1,0,.18l-.22,0,.07-.08c-.18.17-.3-.08-.37-.19a4.61,4.61,0,0,1,.5-.07m5.22,3.22-.2-.19.49-.12a1.47,1.47,0,0,0-.29.31m14.88-8.09h.14c-.2.19-.17.1-.14,0M152.22,71c0,.06,0,.15-.13.26l.1,0a.2.2,0,0,1,.05.17l-.22,0a.46.46,0,0,0,.07-.07c-.18.17-.3-.08-.37-.19a4.29,4.29,0,0,1,.5-.07m5.22,3.22-.2-.19c.16,0,.32-.09.49-.12a1.47,1.47,0,0,0-.29.31m3,3.09-.11.15c.11.1.23.19.33.29-.43,0-1-.13-1.12-.71a1.6,1.6,0,0,1,.9.27m.68,2.07c0,.08-.19.84-.46.93,0-.13-.05-.26-.07-.4l.35-.08-.37,0c0-.13-.05-.26-.09-.39a2,2,0,0,1,.64-.09M161,84.61c-.2.54.14.68.2,1.08-.14-.1-.34-.24-.55-.37a.39.39,0,0,0,.06-.11l-.08.1-.15-.09a.33.33,0,0,1,.08-.24.24.24,0,0,0-.08.09,13.43,13.43,0,0,0,.3-1.56c.27.11.77,1.26.22,1.1m.61,1.79c.05.09-.06.14-.23.2.16,0,.26.1.19.21l-.29-.17s.07,0,.1,0h-.08a.66.66,0,0,1,.17-.23Zm8.25,4.7a1.06,1.06,0,0,0-.21.37l-.38-.22Zm5.76,3,0,.21.59.13a1.64,1.64,0,0,1-1.82-.22,2.33,2.33,0,0,1,1.18-.12m2.77,1.64c0,.1.8.86.75,1.19l-.56-.32.18-.33-.25.28-.55-.31a1.28,1.28,0,0,1,.43-.51m2.83,2.14a.26.26,0,0,0,0,.23l-.46-.26a1.3,1.3,0,0,1,.49,0m3.66,1.66c.61.24.11.37.24.38.85.57,2.76,0,1.73,1.33-.51-.18-.63-.55-.94-.72l.32.32a1,1,0,0,1-.66-.29.4.4,0,0,0,.12.15l-2.17-1.25a2.51,2.51,0,0,1,1.36.08m2.41.78h0c-.21-.22-.13-.14,0,0m4.35,3.8h0l0,0Zm.69.42-.58-.33a.75.75,0,0,1,.58.33m18.62,0c0,.06,0,.16-.13.26l.1,0a.21.21,0,0,1,.05.18l-.22,0,.07-.08c-.19.17-.3-.08-.37-.19a4.29,4.29,0,0,1,.5-.07m5.22,3.22-.2-.19.49-.12a1.47,1.47,0,0,0-.29.31m3,3.09-.11.16c.11.09.23.18.33.28-.44,0-1-.13-1.12-.7a1.53,1.53,0,0,1,.9.26m.68,2.08c0,.07-.19.84-.46.92,0-.13-.05-.26-.08-.39l.36-.09-.37,0-.09-.39a1.68,1.68,0,0,1,.64-.08m-.15,5.27a.82.82,0,0,0,.1.79c.37.63-.35.86-.77.49,0-.35.33-.44.38-.68l-.2.25a.49.49,0,0,1,.05-.47.22.22,0,0,0-.09.08,11.64,11.64,0,0,0,.31-1.56c.27.11.77,1.26.22,1.1m.31,1.57h0c.16-.17.1-.11,0,0m-2.78,2.82h0Zm-.34.39a2.69,2.69,0,0,0,.27-.32.32.32,0,0,1-.27.32m-6.18,4c-.05.09-.16,0-.29-.1a.15.15,0,0,1-.09.27v-.35l.09.08s-.05-.09-.07-.14l.29-.05ZM211,142.6l-.16.14.19.57a1.58,1.58,0,0,1-.72-1.64,2.16,2.16,0,0,1,.69.93m.14,12.84c-.27.39-.52,0-.71.1-.1-.51.16-.79.15-1.14l-.12.43a1,1,0,0,1-.08-.69.46.46,0,0,0-.07.17v-2.44c.26.12,1,1.62.4,1.57-.07,1.19.72,1,.43,2m-.81,5.54h0v0Zm0,.79v-.66a.73.73,0,0,1,0,.66m.6,10.88c0,.06,0,.16-.13.26l.1,0a.21.21,0,0,1,.05.18l-.22,0,.07-.08c-.19.17-.3-.08-.37-.19a4.29,4.29,0,0,1,.5-.07m5.22,3.22-.2-.19.49-.12a1.47,1.47,0,0,0-.29.31m3,3.09-.11.16c.11.09.23.18.33.28-.43,0-1-.13-1.12-.7a1.53,1.53,0,0,1,.9.26m.38,4.51c0-.1,0-.21,0-.32a.87.87,0,0,1,.22.27.33.33,0,0,0-.2.05m-6.37,5.35a2.11,2.11,0,0,0,.3.31l-.14.13c0-.15-.1-.3-.16-.44m-3.25,2.2,0-.1c0,.06,0,.13-.12.12l-.15-.19.25-.22s0,.15,0,.29a.59.59,0,0,1,0-.08.23.23,0,0,1,.09.14l-.15,0m-55.47,31.7a2.11,2.11,0,0,0,.3.31l-.14.13c0-.15-.1-.3-.16-.44m-3.24,2.2s0-.07,0-.1,0,.13-.12.12l-.15-.19.25-.22c.05,0,0,.15,0,.29l0-.08a.23.23,0,0,1,.09.14l-.14,0m-55.48-36.1a2.25,2.25,0,0,0,.31.31l-.15.13c0-.15-.1-.3-.16-.44M92.51,191s0-.07,0-.1,0,.13-.11.12l-.16-.19.25-.22s0,.15,0,.29l0-.08a.23.23,0,0,1,.09.14l-.14,0M160.84,81.77c0-.11,0-.21,0-.32a.75.75,0,0,1,.22.26.34.34,0,0,0-.2.06m52.35,39a2.76,2.76,0,0,0,.3.31l-.14.13c0-.15-.1-.3-.16-.44m-3.25,2.2a.36.36,0,0,0,0-.1s0,.13-.12.12l-.15-.19.25-.22s0,.15,0,.29a.59.59,0,0,1,0-.08.23.23,0,0,1,.09.14l-.15,0m.4,12.88.44.42a1.32,1.32,0,0,0-.44,0Zm.12,11-.12.06v-.62h.37l-.37-.08v-.61a1.48,1.48,0,0,1,.66.11,7,7,0,0,1-.54,1.15m-.12,1.85a1.6,1.6,0,0,1,.22.43c-.07,0-.16,0-.22.09Zm4.53,36.75c.07,0,.53-.37.75-.35,0,.09,0,.18-.05.27l-.36-.08.35.11-.06.26a3.21,3.21,0,0,1-.63-.21m-.62-3.61h0c-.05.13,0,.08,0,0m1.47,2.27c0,.07,0,.15,0,.22a.81.81,0,0,1-.21-.19.51.51,0,0,0,.22,0m-.55-1.71c-.06-.5-.77-.21-.62-.65.2-.23.49-.18.66-.27.17.17-.05.36,0,.5l.08-.21c.1,0,.2.17.15.27a.36.36,0,0,0,0-.09,8.37,8.37,0,0,1,.21,1c-.31,0-1-.5-.51-.57m-12.9-.07-.07,0c0-.12,0-.07.07,0m-5.55,4.41,0-.09c.11.16,0,.12,0,.09m8.85-32.83.06-.12c.07.26,0,.19-.06.12m-8.85-35.22,0-.1c.11.17,0,.13,0,.1m5.55-4.41-.07,0c0-.11,0-.07.07,0m11.89,65.05a.16.16,0,0,1-.17-.21l.17.21m0,.06h0m.05-65.6h0c-.05.13,0,.08,0,0m.62,3.61c.07,0,.53-.37.75-.35,0,.09,0,.18-.05.26l-.36-.07.35.11-.06.26a3.21,3.21,0,0,1-.63-.21m.84-1.12a.81.81,0,0,1-.21-.19.51.51,0,0,0,.22,0c0,.07,0,.15,0,.22M215.2,114l.08-.21c.1,0,.2.17.15.27a.36.36,0,0,0,0-.09,8.37,8.37,0,0,1,.21,1c-.31,0-1-.5-.51-.57-.06-.5-.77-.21-.62-.65.2-.23.49-.18.66-.27.17.17-.05.36,0,.5m-.31,5.27a2,2,0,0,1-.45-.66l.17,0c0-.09-.05-.18-.08-.28a4.22,4.22,0,0,1,.53.56c-.05.12-.11.24-.17.36m-1.14-8.39s-.08.06-.1.07.15.06.15,0l.17.18c-.23,0-.61.48-.8.79a.29.29,0,0,1,.31-.06c0-.4.43-.66.23-.11.12-.2.37,0,.6-.18a7.15,7.15,0,0,1,.7,1.16.14.14,0,0,0-.08,0l.09.09c-.14.19-.36-.08-.39.1-.36-.09-.68-.33-.24-.55-.08,0-.08.21,0,.22-.16,0,.17-.5-.22-.38l-.1.24c-.21-.06-.55,0-.59-.23-.19.23.06,0-.16.31.3-.33.22.39.51,0-.28.32,0,.28-.25.59.09-.05.14-.14.16,0h.09s0,0,0,0c.13-.34.44,0,.58.08s-.12,0-.19.1l.21,0c-.2.09-.26.35-.45.21.11.16-.1.44.1.52,0,.1.28.15.1.12l.2.25h0c.07.31.46.58.11.91a.37.37,0,0,1,.07.35l-.18,0c.07.12-.21.35,0,.41-.5.1-.17.56-.29.76l.24,0a.9.9,0,0,0,0,.5c.56.06,0,.38-.13.66-.08,0,0-.1,0-.13-.55.09.07.75-.39.85,0,.1,0,.13-.09.14v0s-.12,0-.17,0a.32.32,0,0,0,.14,0,.47.47,0,0,0,0,.23l-.22-.1v0c-.15,0,.31.16.28.34-.35-.16,0,.26-.41.08.12.23-.11.47.14.72,0,0-.08,0-.05-.07s-.2.08-.17.22l-.24-.17c.05.14.1.29.14.43-.23,0-.33-.09-.4-.34,0,.46-.08.26-.05.7l-.11-.16c-.07.06,0,.35-.17.26-.37-.16-.89.54-1.51.43.32.49-.31-.14-.17.27-.07-.12-.16-.16-.13-.3-.2.21-.41-.06-.48.33-.06-.13,0-.21,0-.28-.06.2-.15,0-.06-.12-.23.08-.16.49-.09.88-.18-.14-.24-.11-.29.16-.08-.12-.18-.24,0-.31-.1,0-.59-.09-.57.21a3.27,3.27,0,0,0-.61,0l.06,0c-.08.39-.18.09-.36.12v0c-.38-.3-.19.13-.55-.22v.23c-.11.49-.31-.34-.56-.19l.05.14c-.11.15-.36-.93-.17-.91-.21-.36-.12.29-.36.3,0-.17.17-.39,0-.46s-.59.36-.67,0c0,.14,0,.27-.15.31s-.19-.61-.51-.34a.17.17,0,0,1,0-.1c-.16,0-.44-.06-.63.07.38-.7-.89-.17-.42-.76l-.32-.24.06,0c-.14-.21-.32-.16-.52-.1,0-.08.08-.1.11-.12-.14-.37-.15-.37-.65-.4l.18-.17c-.18,0,0-.64-.39-.81a.23.23,0,0,1,.12,0c-.55-.81.43-.66-.91-1.14,0,.37-.38.05-.48.24-.09-.14.16-.44.25-.28l0,0c.46,0,0-.48.36-.53a5.51,5.51,0,0,1,.16-2l-.36,0c0-.22.29-.39.3-.11.21-.06-.13-.28-.2-.3.24-.34.46.39.41,0l-.05,0c-.31-.17-.28-.44,0-.4,0,0,.09-.28.13-.32l-.3,0c-.1-.16.08-.25-.26-.22.46,0,.52-.84.76-1-.11-.25,0-.4.13-.58-.08,0-.36-.12-.23-.27.5.41.44-.13.9,0-.32-.11.26-.47-.21-.57.15-.08.2.15.39.17.06-.45.66-.46.95-.78,0-.08-.19-.13-.19-.29l.44.2c.05-.08-.22-.46.09-.3-.3-.23,2.12-1.31,2.51-.72-.15-.15-.07-.18,0-.2-.07,0,0-.21-.06-.32.14.09.28.17.41.27,0-.33.4,0,.43-.35l-.12.06a.85.85,0,0,0-.12-.66,7.24,7.24,0,0,1,5.74,2.29m.41.47a.16.16,0,0,1-.17-.21l.17.21m0,.06h0m-34.79-8.81c.26.07.17.09.07.11Zm-76.83,17.26c.15-.17.09-.11,0,0h0M94,155.72c.09-.29.06-.19,0,0v0m62.13,63.66c.06,0,.52-.37.74-.35,0,.09,0,.18-.05.27l-.36-.08.35.11a2.44,2.44,0,0,1-.06.26,2.85,2.85,0,0,1-.62-.21m-.62-3.61h0c-.05.13,0,.08,0,0m-12,.49-.07,0c0-.12,0-.07.07,0m13.89-6.49-.2-.19.49-.12a1.47,1.47,0,0,0-.29.31M157,218c0,.08,0,.15,0,.22a.74.74,0,0,1-.2-.19.49.49,0,0,0,.21,0m-1.77-5h0s0,0,0,0m1.23,3.3c-.07-.5-.78-.21-.63-.65.2-.23.49-.18.66-.27.18.17-.05.36,0,.5l.07-.21c.1,0,.2.17.15.27a.18.18,0,0,0,0-.09,8.37,8.37,0,0,1,.21,1c-.31,0-1-.5-.5-.57m-4.74-9.71c.23,0,.75-.19.37.19a.31.31,0,0,0,.1-.05.21.21,0,0,1,.05.18l-.22-.05.07-.08c-.18.17-.3-.08-.37-.19M133.08,206a.78.78,0,0,1,.59.34Zm-.12-.07,0,0,.05,0h0m-36.14-24h0c0,.13,0,.08,0,0m-12,.49-.07,0c0-.12,0-.07.07,0m0-68.05-.07,0c0-.11,0-.07.07,0m12-.49h0c0,.13,0,.08,0,0m-.51-3s-.08.06-.1.07.15.06.15,0c.3.25-.53.57-.62,1a.27.27,0,0,1,.3-.06c-.05-.4.43-.66.23-.11.07-.11.18-.11.3-.11l0,.17c0-.25.21,0,.32-.1,0,.09,0,.23,0,.31h0a1.65,1.65,0,0,0,0,.31c-.06-.22-.28,0-.29.18-.22-.06-.56,0-.6-.23-.19.23.06,0-.15.31.3-.33.21.39.5,0-.28.32,0,.28-.24.59.08-.05.14-.14.16,0h.08s0,0,0,0c.13-.34.45,0,.58.08s-.12,0-.19.1l.21,0c-.2.09-.26.35-.45.21.11.16-.1.44.1.52,0,.1.29.15.1.12l.21.25h-.06c.07.31.47.58.11.91a.38.38,0,0,1,.08.36l-.19,0c.07.12-.21.35,0,.41-.5.1-.17.56-.29.76l.24,0a1,1,0,0,0,0,.5c.56.06,0,.38-.13.66-.07,0,0-.1,0-.13-.54.09.07.75-.39.85,0,.1,0,.13-.09.14v0s-.11,0-.16,0a.32.32,0,0,0,.14,0,.37.37,0,0,0,0,.23l-.22-.1v0c-.15,0,.31.16.28.34-.35-.16,0,.26-.4.09.11.22-.12.46.13.71,0,0-.07,0,0-.07s-.19.08-.17.23l-.24-.18c.05.14.1.29.14.43-.22,0-.33-.09-.4-.34,0,.46-.08.26,0,.7l-.11-.16c-.07.06,0,.35-.17.26-.36-.16-.88.54-1.5.43.31.49-.32-.14-.17.27-.08-.12-.17-.16-.14-.3-.19.21-.41-.06-.47.33-.07-.13,0-.21,0-.28-.07.2-.16,0-.07-.12-.23.08-.16.49-.09.88-.18-.14-.23-.11-.29.16-.07-.12-.17-.24,0-.31-.1,0-.59-.09-.57.21a3.27,3.27,0,0,0-.61,0l.06,0c-.08.39-.18.09-.35.12v0c-.38-.3-.19.13-.54-.22v.23c-.11.49-.31-.34-.56-.19l.06.14c-.12.15-.36-.93-.18-.91-.21-.36-.12.29-.36.3,0-.17.17-.39,0-.46s-.59.36-.67,0c0,.14,0,.27-.15.31s-.19-.61-.5-.34a.12.12,0,0,1,0-.1c-.16,0-.44-.06-.63.07.39-.7-.88-.17-.42-.76l-.32-.24.06,0c-.14-.21-.32-.16-.51-.1,0-.08.08-.1.11-.12-.15-.37-.16-.37-.66-.41l.18-.16c-.18,0,0-.64-.38-.81a.19.19,0,0,1,.11,0c-.55-.81.43-.66-.91-1.14,0,.37-.38.05-.48.24-.09-.14.16-.44.25-.28l0,0c.46-.06,0-.48.35-.53a5.51,5.51,0,0,1,.17-2l-.37,0c0-.22.29-.39.31-.11.21-.06-.13-.28-.21-.3.24-.34.47.39.41,0l0,0c-.31-.17-.28-.44,0-.4,0,0,.09-.28.12-.32l-.3,0c-.1-.16.09-.25-.25-.22.45,0,.52-.84.75-1-.11-.25,0-.4.13-.58-.07,0-.36-.12-.22-.27.5.41.43-.13.9,0-.33-.11.25-.47-.21-.57.15-.08.19.15.39.17,0-.45.66-.46.94-.78,0-.08-.19-.13-.19-.29.16.06.3.13.45.2s-.22-.46.08-.3c-.3-.23,2.13-1.31,2.51-.72-.14-.15-.07-.18,0-.2-.06,0,0-.21-.06-.32l.42.27c0-.33.39,0,.42-.35l-.12.06a.84.84,0,0,0-.11-.66,7.21,7.21,0,0,1,5.73,2.29m5.75,3a.19.19,0,0,1-.1,0c0-.13,0-.26-.07-.39l.36-.09-.38,0a2.74,2.74,0,0,0-.09-.39,1.69,1.69,0,0,1,.64-.08,2.43,2.43,0,0,1-.36.87m.06,1.56c0-.1,0-.21,0-.32a.85.85,0,0,1,.22.26.47.47,0,0,0-.2.06m-2.32,7.21v0h0m-6.89,13v-.46l.43.45a.9.9,0,0,0-.43,0m0,25.9v0h0m0,.14a.83.83,0,0,1,0,.69Zm5.81,14.21-.2-.19.49-.12a1.47,1.47,0,0,0-.29.31m3.34,6a.33.33,0,0,1-.1.06c0-.14,0-.27-.07-.4l.36-.09-.38,0a2.74,2.74,0,0,0-.09-.39,1.69,1.69,0,0,1,.64-.08,2.36,2.36,0,0,1-.36.87m.21,4.4c-.2.54.15.69.2,1.09a6.48,6.48,0,0,0-.55-.37.45.45,0,0,0,.06-.12l-.09.11-.14-.08a.33.33,0,0,1,.08-.25.2.2,0,0,0-.08.08,13.43,13.43,0,0,0,.3-1.56c.27.12.77,1.26.22,1.1m.57,2c.07.1.07.16,0,.22l-.31-.18.12,0h-.13a.62.62,0,0,1,.17-.25c.25,0,.29.16,0,.25h.15m8.13,4.88-.39-.22.6-.16a1,1,0,0,0-.21.38m5.63,3.24-.83-.48a2.31,2.31,0,0,1,1.18-.11l0,.21.59.13a8,8,0,0,1-1,.25M97.77,182l.07-.21c.1,0,.2.17.15.27A.41.41,0,0,0,98,182a6.82,6.82,0,0,1,.2,1c-.31,0-1-.5-.5-.57-.07-.5-.78-.21-.62-.65.19-.23.48-.18.65-.27.18.17,0,.36,0,.5m4.35,1.46c0-.1,0-.21,0-.32a.87.87,0,0,1,.22.27.35.35,0,0,0-.2.05m-3.94,1.66c0,.09,0,.18-.05.27l-.36-.08.36.11c0,.09,0,.17-.07.26a2.85,2.85,0,0,1-.62-.21c.06,0,.52-.37.74-.35m.09-.77a.74.74,0,0,1-.2-.19.49.49,0,0,0,.21,0,1.62,1.62,0,0,1,0,.22m4.2,3.1a.5.5,0,0,1-.09.2c0-.12-.07-.23.09-.2m-5.75-8.1c-.1,0-.18-.07-.17-.21l.17.21m0,.06h0M93,146.73a.19.19,0,0,1-.11.07v-.65l.37,0-.37-.08v-.63a1.2,1.2,0,0,1,.65.11,5.86,5.86,0,0,1-.54,1.2m-.11,2a1.39,1.39,0,0,1,.21.45c-.07,0-.15,0-.21.08Zm4.21-34.95c.19-.23.48-.18.65-.27.18.17,0,.36,0,.5l.07-.21a.26.26,0,0,1,.16.19l-.13,0L98,114v0c.2.23.16.65.24,1-.31,0-1-.5-.5-.57-.07-.5-.78-.21-.62-.65m1.06,3.35c0,.09,0,.18-.05.26l-.36-.07.36.11c0,.09,0,.17-.07.26a2.85,2.85,0,0,1-.62-.21c.06,0,.52-.37.74-.35m.09-.77a.74.74,0,0,1-.2-.19.49.49,0,0,0,.21,0,1.62,1.62,0,0,1,0,.22M98,114h0v0M97,112.59c-.1,0,0-.19,0-.31a3.06,3.06,0,0,0,.2.63c-.36-.08-.63-.33-.21-.54-.07,0-.08.21,0,.22m0,6h.17a1.38,1.38,0,0,0-.08-.27,3.13,3.13,0,0,1,.53.55c-.05.12-.11.24-.17.36a2.24,2.24,0,0,1-.45-.65m-1.25,2.19a3,3,0,0,0,.31.31l-.15.13c0-.15-.1-.3-.16-.44m-3.5,2,.25-.22s0,.15,0,.29a.59.59,0,0,0,0-.08.23.23,0,0,1,.09.14l-.14,0s0-.07,0-.1a.47.47,0,0,1,0,.1,2.11,2.11,0,0,1-.22-.17m4.84,63.57a3.13,3.13,0,0,1,.53.55,2,2,0,0,1-.25.26,1.63,1.63,0,0,1-.37-.55h.17a1.38,1.38,0,0,0-.08-.27m22.82,12,.17-.33-.25.29-.54-.32a1.36,1.36,0,0,1,.42-.51c.05.1.8.87.75,1.19Zm2.6,1.5-.45-.26a1.55,1.55,0,0,1,.49,0c-.06.05,0,.15,0,.22m6.09,2.22c-.21-.23-.13-.15,0,0h0m-2.15-.41c.85.58,2.76,0,1.73,1.33-.51-.18-.62-.55-.94-.72l.32.33a1.1,1.1,0,0,1-.66-.29.69.69,0,0,0,.12.14l-2.17-1.25c.24-.16,1.93,0,1.6.46M102,179.4c-.43,0-1-.13-1.11-.7a1.51,1.51,0,0,1,.89.26l-.11.16a3,3,0,0,1,.33.28m-9-6.68a4.44,4.44,0,0,1,.49-.07c0,.11,0,.17-.12.26l.1,0a.21.21,0,0,1,0,.18l-.22,0,.07-.08c-.18.17-.3-.08-.37-.19m0-17.65a1.14,1.14,0,0,1-.07-.73.58.58,0,0,0-.07.19V152c.25.12,1,1.69.4,1.64-.08,1,1.35,2.46-.29,2.21-.1-.54.17-.83.16-1.2ZM93.62,143a1.7,1.7,0,0,1-.71-1.72,2.32,2.32,0,0,1,.69,1l-.16.15Zm5.85-20,.27-.32a.32.32,0,0,1-.27.32m2.8-4.78a.82.82,0,0,0,.1.79c.37.63-.35.86-.77.49,0-.35.33-.44.38-.68l-.19.25a.46.46,0,0,1,0-.47.15.15,0,0,0-.08.08,13.43,13.43,0,0,0,.3-1.56c.27.11.77,1.26.22,1.1m10.81-12.72a.79.79,0,0,1-.58.34Zm.17-.1,0,0h0Zm10.85-6.26a1.22,1.22,0,0,1-.27.4c0-.07-.11-.11-.18-.14Zm19.45-18.53-.07,0c0-.11,0-.07.07,0m12-.48h0c-.05.13,0,.08,0,0m1.36,3.26c0,.09,0,.17-.05.26l-.36-.07.35.11a1.83,1.83,0,0,1-.06.25,3.75,3.75,0,0,1-.62-.2c.06,0,.52-.38.74-.35m.09-.77a.74.74,0,0,1-.2-.19.71.71,0,0,0,.21,0c0,.07,0,.15,0,.22m-.5-2.35.07-.21c.1,0,.2.17.15.26a.13.13,0,0,0,0-.09,9,9,0,0,1,.21,1c-.31,0-1-.5-.5-.58-.07-.49-.78-.21-.63-.64.2-.23.49-.18.66-.28.18.18-.05.37,0,.51m-.68,4.35a4.23,4.23,0,0,1,.51.52,3.43,3.43,0,0,1-.27.26,1.54,1.54,0,0,1-.33-.52l.17,0c0-.09,0-.18-.08-.28m-1.34,2.46a4.08,4.08,0,0,0,.3.31l-.14.13c0-.15-.1-.3-.16-.44m-3.5,2,.25-.22c.05,0,0,.15,0,.29a.36.36,0,0,0,0-.09.29.29,0,0,1,.09.15l-.14,0s0-.07,0-.1,0,.12-.12.12a1.38,1.38,0,0,0-.15-.19m-15.39,3.41-.17.6a.92.92,0,0,0-.22-.37Zm-6,3.47.82-.48a2.19,2.19,0,0,1-.48,1.08l-.21-.06-.41.44a8,8,0,0,1,.28-1m-10.89,7.59v0c.29-.06.19,0,0,0m-.13-.28c-.48,0-.28-.45-.45-.56.41-.36.79-.27,1.09-.46l-.44.12a1.09,1.09,0,0,1,.58-.43l-.19,0,2.17-1.25c0,.29-1,1.67-1.19,1.15-1.1.55-.54,1.15-1.57,1.4m8.55-5.13c-.1,0-1.14.26-1.4.05l.55-.32.2.32-.12-.36.54-.32a1.31,1.31,0,0,1,.23.63m27.93-21s-.08.06-.1.07.15.06.15,0l.17.18c-.23,0-.61.48-.8.79a.29.29,0,0,1,.31-.06c0-.41.43-.66.23-.11.12-.2.37,0,.6-.18a7.15,7.15,0,0,1,.7,1.16.12.12,0,0,0-.08,0l.09.1c-.14.19-.36-.08-.39.1-.35-.09-.68-.33-.24-.55-.08,0-.08.21,0,.22-.16,0,.17-.5-.22-.38l-.09.23c-.22-.05-.56,0-.6-.22-.19.23.06,0-.15.3.3-.33.21.4.5,0-.28.32,0,.28-.25.59.09,0,.15-.14.16,0h.09s0,0,0,0c.13-.34.44.05.58.09s-.12,0-.19.1l.21,0c-.2.1-.26.36-.45.22.11.16-.1.43.1.52,0,.09.28.14.1.12l.21.24-.06,0c.07.31.47.58.11.91a.37.37,0,0,1,.08.35l-.19,0c.07.12-.21.35,0,.41-.5.1-.17.56-.29.75l.24.06a1,1,0,0,0,0,.5c.56.06,0,.38-.13.65-.07,0,0-.1,0-.12-.54.09.07.74-.39.84,0,.1,0,.13-.09.15v0s-.11,0-.17,0a.34.34,0,0,0,.15,0,.42.42,0,0,0,0,.24l-.22-.1v0c-.15,0,.31.16.28.34-.35-.16,0,.25-.4.08.11.23-.12.47.13.72,0,0-.08,0-.05-.07s-.19.08-.17.22l-.24-.17c.05.14.1.28.14.43-.23,0-.33-.09-.4-.34,0,.45-.08.26-.05.69l-.11-.15c-.07.06,0,.35-.17.26-.37-.16-.89.53-1.51.43.32.49-.31-.14-.16.27-.08-.12-.17-.17-.14-.3-.2.2-.41-.07-.48.32-.06-.12,0-.2,0-.27-.07.2-.16,0-.07-.12-.23.08-.16.49-.09.87-.18-.14-.24-.1-.29.16-.08-.11-.18-.23,0-.3-.1,0-.59-.1-.57.21a4.32,4.32,0,0,0-.61,0l.06.05c-.08.39-.18.09-.35.12v0c-.38-.29-.19.14-.55-.22V89c-.11.49-.31-.35-.56-.19l.06.14c-.12.15-.36-.93-.18-.91-.21-.36-.12.28-.36.3,0-.17.17-.39,0-.46s-.59.36-.67,0c0,.13,0,.27-.15.31s-.19-.61-.51-.34a.17.17,0,0,1,0-.1c-.16,0-.44-.07-.63.07.39-.7-.88-.17-.42-.77l-.32-.23.06,0c-.14-.2-.32-.15-.52-.1,0-.07.08-.09.12-.11-.15-.37-.16-.37-.66-.41l.18-.16c-.18,0,0-.64-.38-.81l.11,0c-.55-.81.43-.65-.91-1.13,0,.37-.38,0-.48.24-.09-.14.16-.44.25-.28l0,0c.46-.06,0-.48.36-.53a5.51,5.51,0,0,1,.16-2l-.36,0c0-.21.29-.38.3-.11.22,0-.13-.28-.2-.3.24-.33.46.4.41,0l0,0c-.31-.17-.28-.45,0-.4,0,0,.09-.29.12-.32l-.3,0c-.1-.16.09-.26-.25-.22.45,0,.52-.84.75-1-.11-.26,0-.4.13-.58-.08,0-.36-.12-.23-.27.5.41.44-.14.91,0-.33-.12.25-.47-.21-.57.14-.08.19.15.38.16.06-.44.67-.46.95-.78,0-.07-.19-.13-.19-.29l.45.21c0-.08-.23-.47.08-.3-.3-.23,2.13-1.31,2.51-.73-.14-.14-.07-.17,0-.19-.07,0,0-.21-.06-.32l.41.26c0-.32.4,0,.43-.35l-.12.07a.89.89,0,0,0-.11-.66A7.23,7.23,0,0,1,155,77.19m.41.47a.18.18,0,0,1-.17-.21l.17.21m0,0v0h0M95.84,188.52l-.24-.18c.05.14.1.29.14.43-.22,0-.33-.09-.4-.34,0,.46-.08.26,0,.7l-.11-.16c-.07.06,0,.35-.17.26-.36-.16-.88.54-1.5.43.31.49-.32-.14-.17.27-.08-.12-.17-.16-.14-.3-.19.21-.41-.06-.47.33-.07-.13,0-.2,0-.28-.07.2-.16,0-.07-.12-.23.08-.16.49-.09.88-.18-.14-.23-.11-.29.16-.07-.12-.17-.24,0-.31-.1,0-.59-.09-.57.21a3.27,3.27,0,0,0-.61,0l.06.05c-.08.38-.18.08-.35.12v0c-.38-.3-.19.13-.54-.22v.23c-.11.49-.31-.34-.56-.19l.06.15c-.12.14-.36-.94-.18-.92-.21-.36-.12.29-.36.3,0-.17.17-.39,0-.46s-.59.36-.67,0c0,.14,0,.28-.15.31s-.19-.61-.5-.34a.12.12,0,0,1,0-.1c-.16,0-.44-.06-.63.08.39-.71-.88-.18-.42-.77l-.32-.24.06,0c-.14-.21-.32-.16-.51-.1,0-.08.08-.09.11-.12-.15-.37-.16-.37-.66-.4l.18-.17c-.18,0,0-.64-.38-.81a.19.19,0,0,1,.11,0c-.55-.81.43-.66-.91-1.14,0,.37-.38,0-.48.24-.09-.14.16-.44.25-.28l0,0c.46-.06,0-.48.35-.53a5.51,5.51,0,0,1,.17-2l-.37,0c0-.22.29-.39.31-.11.21-.06-.13-.28-.21-.3.24-.34.47.39.41,0l0,0c-.31-.17-.28-.44,0-.4,0,0,.09-.28.12-.32l-.3,0c-.1-.16.09-.25-.25-.22.45,0,.52-.84.75-1-.11-.25,0-.4.13-.58-.07,0-.36-.12-.22-.27.5.42.43-.13.9,0-.33-.12.25-.48-.21-.58.15-.08.19.15.39.17,0-.45.66-.46.94-.78,0-.08-.19-.13-.19-.29.16.06.3.13.45.2s-.22-.46.08-.3c-.3-.23,2.13-1.31,2.51-.72-.14-.15-.07-.18,0-.2-.06,0,0-.2-.06-.32.15.09.28.17.42.27a.17.17,0,0,1,.17-.18,3,3,0,0,0,.08.32l.25-.19,0,.22.08-.29,0,0,0,0s-.09,0-.11,0v0a.53.53,0,0,1-.32-.07c.11,0,.22,0,.24-.17l-.12.06a.85.85,0,0,0-.11-.66,7.21,7.21,0,0,1,5.73,2.29s-.08.07-.1.07.15.06.15,0l.17.18c-.22,0-.61.48-.8.79a.3.3,0,0,1,.31-.06c-.05-.4.43-.66.23-.11.12-.19.37,0,.61-.18a7.55,7.55,0,0,1,.69,1.16.18.18,0,0,0-.08.05l.09.09c-.14.19-.36-.08-.38.1-.36-.08-.69-.33-.25-.55-.07.05-.08.21,0,.22-.16,0,.17-.5-.22-.38l-.09.24c-.22-.06-.56,0-.6-.23-.19.23.06,0-.15.31.3-.33.21.39.5,0-.28.32,0,.28-.25.59.09,0,.15-.14.17,0h.09v0s0,0,0,0c.13-.34.44.05.58.08s-.12,0-.19.1l.21.05c-.2.1-.26.35-.45.21.11.16-.1.44.1.52,0,.1.29.15.1.12l.21.25h-.06c.07.31.47.58.11.91a.38.38,0,0,1,.08.36l-.19,0c.07.12-.21.35,0,.41-.5.1-.17.56-.29.76l.24.05a1,1,0,0,0,0,.5c.56.06,0,.38-.13.66-.07-.05,0-.1,0-.13-.54.09.07.75-.39.85,0,.1,0,.13-.09.14v0c0,.05-.11,0-.17.05h.15a.38.38,0,0,0,0,.23l-.22-.1v0c-.15,0,.31.16.28.35-.35-.17,0,.25-.4.08.11.23-.12.46.13.71,0,0-.07,0,0-.07s-.19.08-.17.23m58.72,33.9-.24-.18c.05.14.1.29.14.43-.23,0-.33-.09-.4-.34,0,.46-.08.26-.05.7l-.11-.16c-.07.06,0,.35-.17.26-.37-.16-.89.54-1.51.43.32.49-.31-.14-.16.27-.08-.12-.17-.16-.14-.3-.2.21-.41-.06-.48.33-.06-.12,0-.2-.05-.28-.06.2-.15,0-.06-.12-.23.08-.16.49-.09.88-.18-.14-.24-.11-.29.16-.08-.12-.18-.24,0-.31-.1,0-.59-.09-.57.21a3.27,3.27,0,0,0-.61,0l.06,0c-.08.38-.18.08-.35.12v0c-.38-.3-.19.13-.55-.22v.23c-.11.49-.31-.34-.56-.19l.06.15c-.12.14-.36-.94-.18-.92-.21-.36-.12.29-.36.3,0-.17.17-.39,0-.46s-.59.36-.67,0c0,.14,0,.28-.15.32s-.19-.62-.51-.34a.18.18,0,0,1,0-.11c-.16,0-.44-.06-.63.08.39-.71-.88-.18-.42-.77l-.32-.23.06,0c-.14-.21-.32-.16-.52-.1,0-.08.08-.09.12-.12-.15-.36-.16-.37-.66-.4l.18-.17c-.18,0,0-.64-.38-.81a.19.19,0,0,1,.11,0c-.55-.81.43-.66-.91-1.14,0,.37-.38.06-.48.24-.09-.13.16-.44.25-.28l0,0c.46-.05,0-.48.36-.53a5.51,5.51,0,0,1,.16-2l-.36,0c0-.22.29-.39.3-.11.22-.05-.13-.28-.2-.3.24-.34.46.39.41,0l0,0c-.31-.17-.28-.44,0-.4,0,0,.08-.28.12-.32l-.3,0c-.1-.16.09-.25-.25-.22.45,0,.52-.84.75-1a.5.5,0,0,1,.13-.57c-.08,0-.36-.13-.23-.28.5.42.44-.13.91,0-.33-.12.25-.48-.21-.58.14-.08.19.15.38.17.06-.45.67-.46.95-.78,0-.08-.19-.13-.19-.29l.45.2c0-.08-.23-.46.08-.3-.3-.22,2.13-1.31,2.51-.72-.14-.15-.07-.18,0-.2-.07,0,0-.2-.06-.32.14.09.28.17.41.27,0-.33.4,0,.43-.35l-.12.06a.89.89,0,0,0-.11-.66,7.26,7.26,0,0,1,5.73,2.29s-.08.06-.1.07.15.06.15,0c.23.28-.53.59-.63,1a.29.29,0,0,1,.31-.06c0-.4.43-.66.23-.11.07-.12.2-.11.35-.11a1.14,1.14,0,0,0,.1.3,1.49,1.49,0,0,1-.09-.3.55.55,0,0,0,.24-.07c.08.11.12.36,0,.45l.07,0a2.55,2.55,0,0,0,.28.86.46.46,0,0,1,.23.08c-.13,0-.26-.1-.28,0-.35-.08-.68-.33-.24-.55-.08.05-.08.21,0,.22-.16,0,.17-.5-.22-.38l-.09.24c-.22-.06-.56,0-.6-.23-.19.23.06,0-.15.31.3-.33.21.39.5,0-.28.32,0,.28-.25.59.09,0,.15-.14.16,0h.1v0s0,0,0,0c.13-.34.44.05.58.08s-.12,0-.19.1l.21.05c-.2.1-.26.35-.45.21.11.16-.1.44.1.52,0,.1.28.15.1.12l.2.25h0c.07.31.47.58.11.91a.38.38,0,0,1,.08.36l-.19,0c.07.12-.21.35,0,.41-.5.1-.17.56-.29.76l.24.05a1,1,0,0,0,0,.5c.56.06,0,.38-.13.66-.07-.05,0-.1,0-.13-.54.09.07.75-.39.85,0,.1,0,.13-.09.14v0s-.11,0-.17,0H155a.38.38,0,0,0,0,.23l-.22-.1v0c-.15,0,.31.16.28.35-.35-.17,0,.25-.4.08.11.23-.12.46.13.71,0,0-.08,0-.05-.07s-.19.08-.17.23m1.61-1.24a2.24,2.24,0,0,1-.45-.65h.17c0-.09,0-.18-.08-.27a3.54,3.54,0,0,1,.53.55c-.05.12-.11.24-.17.36m16.24-19.74c-.2.19-.16.1-.13,0Zm24.17-13.59h.25c-.19.31-1.12-.14-1.43,0-.08,0,.07-.12.13-.2-.87.17.06.32-.45.7-.53-1-1,.78-1.91.84.86.51-1.31.46-1.3,1.06a.14.14,0,0,1-.12,0c-.24.26-.87.71-.94,1-.68-.54-1.65,1.4-2,.75l-.89.56,0-.08c-.64.16-.85,1.13-.94.72a2.36,2.36,0,0,0-1.52,1.17l-.2-.17c-.12.24-1.42.39-2.11,1.11a.17.17,0,0,1,0-.15c-.8.79-2.59.72-2.49,1.68l-.51.55c.83-.41.07.4.47.33-.34.31-1,.13-.5,0-.09-.47-1.08.44-1.21.16-1.57.93-3.23,1.59-4.72,2.43l.35.21c-.16.18-1.16.49-.47-.06-.29-.06-.53.51-.5.58-.8.29.07-.52-.16-.4l-.28.2h.09c-.08.29-.57.87-.94.6-.06,0-.73.41-.84.44l.4.09c-.22.29-.62.34-.16.44-1.6.15-2.85,1.56-4.06,2.17.15,0,.39.21-.06.42-.17-.65-.92.21-1.5,0,.47.09-1.17.77-.46.87-.39.16-.15-.2-.49-.18-.72.71-2,.94-3,1.61.6.53-.46.25-.66.28s.06.54-.46.5c.22.3-2.37,1.37-2.88,1.71l.17-.26a5.15,5.15,0,0,0-.55,0c0-.28,0-.42.29-.43-.65-.11-.42-.21-1-.25l.14-.13c-.14-.1-.5,0-.48-.23-.07-.55-1.47-1.07-2.21-1.75,0,.59-.32-.41-.52,0,0-.15-.1-.27.09-.32-.51,0-.64-.48-1.08-.2,0-.14.15-.16.13-.25-.22.11-.32-.11,0-.14-.52-.11-.66.28-.78.65-.2-.25-.33-.25-.55,0-.07-.14-.19-.29.12-.29-.16,0-1-.35-1.07,0a9.51,9.51,0,0,0-1.08-.06l.1.06c-.15.36-.3.08-.61.14v0c-.71-.23-.28.12-1-.11.29.84-.48,0-.94.28l.16.11c-.17.19-.73-.53-1-.53-.06,0,.06-.09.12-.14-.66-.13,0,.31-.4.49-.27-1-.73.38-1.45.29.71.63-1,.18-.92.76q-.07,0-.09-.06c-.16.21-.57.55-.57.8-.6-.57-.88,1.12-1.36.61l-.52.52,0-.07-.1.09-.06,0,0,.06a.74.74,0,0,0-.2.68c-.11,0-.11-.06-.13-.09a1.81,1.81,0,0,0-.44.37l-6-3.47.06,0,0-.11c-.18-.1-.35-.11-.27,0l-.49-.28c.39,0,.48-.62.36-1.09-.05.07-.09.14-.49,0,.83.87,0,.75-.25.14.06.28-.58,0-.78.24l-2.79-1.61c.16-.09-.22-.18-.25-.21-.13-.32.63,0,.35-.24.36.09,1.53.1,1.3.79,0-.09-.23-.34-.41-.34.27,0,.55.78,1,.57l-.23-.38a2.7,2.7,0,0,1,1.39.38c0-.37-.11,0-.25-.51.05.53-1.1-.65-.89,0-.12-.53-.47-.46-.71-1,0,.09.05.25-.28,0,0,0-.12.05-.15,0l0,0s.13.19.11.24c-.29.09-.87-.24-1.12-.26s.15,0,.08-.2l-.38,0c.08-.2-.39-.64.18-.46a5.87,5.87,0,0,0-1.67-1l-.78-.29,0-.05c-.93-.52-2.58-1.08-3.15-2-.34-.12-.82-.69-1-.6-.08-.63-1.43-.95-1.92-1.34l-.15.2a6.51,6.51,0,0,0-1.26-.55l-.08.21c-.48-.07-.94-.72-1.58-1.06.09-.05.24.06.32.17-.67-.9-2-.76-2.66-1.54h0c-.1-.06-.15-.18-.24-.28a.76.76,0,0,0,.14.22,3.71,3.71,0,0,0-.57-.23l0-.25c-.19-.16-.26-.08-.25.2l-.32,0c0-.41-.58-.18-.58-.65-.23.1-1.05-.43-1.36-.13,0-.06,0-.11.08,0a1.06,1.06,0,0,0-.64-.34l.06-.32-.67.08c-.2-.32-.27-.48.13-.52-.86-.09-.62-.2-1.38-.24l.12-.15a31,31,0,0,1-4-2.66c0,.63-.43-.54-.7-.19,0-.15-.13-.31.13-.3-.68-.24-.82-.72-1.43-.64,0-.16.23-.1.21-.2-.26,0-.43-.26,0-.16a.77.77,0,0,0-1.15.29,1.11,1.11,0,0,0-.25-.27c.11-.12,0-.76,0-.54v-.6H103c.16-.6-.12-1.24.31-1.83,0-.17-.23-.74.17-.78,0-.25.16-.77,0-.87.53-.34,0-1.28,0-1.71l-.25,0a2.65,2.65,0,0,0-.38-.91l-.2.09c-.24-.26-.1-.83-.3-1.3.09,0,.11.13.1.23.27-.73-.8-1-.77-1.66a.32.32,0,0,1-.17-.29l0,0c-.05-.07,0-.18,0-.27a.72.72,0,0,0,0,.2,1.7,1.7,0,0,0-.3-.32l.16-.18c0-.19-.14-.11-.28.09a.68.68,0,0,0-.24-.08c.24-.32-.34-.25-.12-.63-.26,0-.65-.53-1-.3,0,0,0-.09.09,0-.08-.16-.16-.32-.35-.35l.17-.26a5.15,5.15,0,0,0-.55,0c0-.28,0-.42.29-.44-.64-.11-.42-.2-1-.24l.14-.13c-.14-.1-.5-.05-.48-.24-.07-.54-1.47-1.06-2.2-1.74-.06.59-.33-.41-.53,0,0-.14-.1-.26.09-.31-.51,0-.64-.48-1.08-.2,0-.14.16-.16.13-.25-.22.11-.32-.12,0-.14-.51-.11-.66.28-.78.65-.06-.05,0-.15,0-.21a.26.26,0,0,0-.1.11.24.24,0,0,0-.23-.07c0-.41-.1.1-.22.15-.06-.14-.19-.29.13-.29l-.31-.09v-8.91a.13.13,0,0,0,0,.06H93c0-.22-.07-.37-.12-.25v-.58c.16.36.77.11,1.12-.23-.09,0-.16,0-.28-.42-.34,1.18-.67.35-.25-.14-.21.2-.32-.49-.59-.57v-3.29c.16.1,0-.28,0-.32.21-.28.29.57.39.18.1.36.68,1.4,0,1.55.08,0,.17-.37.08-.53.14.23-.4.88,0,1.14l.21-.4A2.84,2.84,0,0,1,94,160.8c.29-.23,0-.11.31-.48-.43.32,0-1.3-.43-.8.4-.37.17-.64.51-1.12-.1,0-.19.17-.14-.26,0,0-.1-.08-.08-.12v0s-.1.22-.16.23c-.22-.21-.21-.9-.33-1.13,0-.25.11.11.22,0l-.18-.34c.22,0,.36-.68.49-.08a5.7,5.7,0,0,0,0-2l-.13-.84h0c0-1.14-.36-2.75.16-3.8-.06-.36.19-1.08,0-1.23.51-.39.11-1.75.2-2.39l-.24,0a6.66,6.66,0,0,0-.16-1.39l-.22,0c-.17-.47.16-1.2.14-1.94.08,0,.06.24,0,.37.43-1.05-.35-2.16,0-3.14,0,0,0,0,0,.05a1.18,1.18,0,0,1,.12-.36,1,1,0,0,0-.11.23,4.5,4.5,0,0,0-.09-.61l.23-.1c0-.25-.05-.27-.29-.11a1.8,1.8,0,0,0-.14-.31c.38-.18-.13-.6.27-.84-.19-.16-.14-1.15-.56-1.27.06,0,.08-.08.08.05a1.1,1.1,0,0,0,0-.74l.3-.11-.4-.56c.18-.33.29-.47.52-.14-.36-.81-.14-.66-.49-1.35l.2,0a31.42,31.42,0,0,1,.28-4.93c-.57.28.26-.66-.18-.71.13-.08.21-.28.32-.05-.1-.55.07-.89,0-1.24a1,1,0,0,1,.5-.14c-.15-.18-.33-.06-.53,0a.6.6,0,0,0-.13-.25c.14-.09.2.15.28.08-.19-.18.09-.53,0-.15l.05,0,0,.08v-.09c.28,0,.27-.09,0-.12l0,.06a1.08,1.08,0,0,0-.08-.3,11.16,11.16,0,0,0,4.89-3s.08.07.08.08.1-.2,0-.2a2.85,2.85,0,0,0,.23-.26c0,.27.54.56,1,.6-.06-.06-.11-.1,0-.4-.66.38-.76-.18-.14-.23-.24,0-.07-.45-.25-.65a4,4,0,0,0,.3-.42l.24.08-.12-.19-.12.11a9.83,9.83,0,0,0,.76-1.34c.1.1.11-.13.13-.17.27-.08.11.45.3.27.05.32.09,1.19-.5.88.08,0,.29-.12.26-.26,0,.21-.64.29-.4.64l.32-.12c0,.3.08.79-.22,1,.34,0,0-.08.45-.09-.47,0,.49-.77-.07-.71.47,0,.39-.28.84-.43-.1,0-.22,0,0-.22a.47.47,0,0,1,0-.1l0,0h0s0,0,0,0c-.47.28-.11-.62-.17-.77.12-.13.07.11.21.07,0-.09,0-.18-.07-.28.21.07.5-.3.47.14.25-.47.59-1,.47-1.31v-.6H103c.16-.6-.12-1.24.31-1.83,0-.17-.23-.74.17-.78,0-.25.16-.77,0-.87.53-.34,0-1.28,0-1.71l-.25,0a2.65,2.65,0,0,0-.38-.91l-.2.08a.37.37,0,0,1-.11-.27v0a5.68,5.68,0,0,1-.08-.66l9.37-5.4a.1.1,0,0,0-.05,0l.07.08c.18-.11.27-.24.14-.22l.5-.28c-.23.31.29.72.75.85,0-.08-.07-.14.22-.44-1.17.28-.64-.41,0-.29-.28-.09.25-.52.19-.79l2.78-1.61c0,.18.27-.1.31-.12.34,0-.34.54,0,.43-.25.27-.85,1.27-1.33.73,0,.07.41,0,.5-.19-.14.24-1,.09-1,.55l.45,0c-.28.34-.55.86-1,1,.35.14.09-.09.57,0-.49-.22,1.11-.62.46-.77.51.17.63-.16,1.21-.11-.06-.07-.24-.08.15-.24,0,0,0-.13.06-.13h0s-.24,0-.27,0c.07-.3.65-.63.78-.84s0,.15.14.17l.2-.32c.14.17.76,0,.31.39a5.82,5.82,0,0,0,1.69-1l.65-.54,0,.05c.9-.54,2.22-1.69,3.3-1.72.27-.24,1-.37,1-.61.58.25,1.54-.76,2.12-1l-.11-.22a6.17,6.17,0,0,0,1.11-.82l-.14-.17c.31-.38,1.1-.45,1.71-.83,0,.09-.17.17-.3.19,1.11-.14,1.66-1.36,2.67-1.54l0,0A1.35,1.35,0,0,1,132,96h-.25a3.12,3.12,0,0,0,.48-.37l.2.15c.23-.08.19-.17-.06-.31a1.11,1.11,0,0,0,.19-.27c.34.24.45-.4.86-.17,0-.25.9-.69.8-1.11,0,0,.1,0,0,.09a1,1,0,0,0,.61-.38l.24.21.27-.62c.38,0,.55,0,.38.38.51-.71.49-.44.9-1.08l.07.18a29.78,29.78,0,0,1,4.33-2.16c-.16-.11-.16-.16-.09-.19.43.41.74,1,1.34,1.42.06-.06,0-.25.25-.24,0,1.1.34.19.58.7,1,.44,3.19,1.35,4.62,2-.2-.2,0-.19.12-.17-.1-.06,0-.21,0-.33.21.14.42.29.65.42.15-.31.74,0,.83-.29l-.22,0c.16-.19,0-.42-.08-.66,3.57.73,6.37-2.32,9-2.87-.16.21,0,.26-.09.45.36-.4,0,.19.34,0a1.25,1.25,0,0,1-.18.24l.27-.12h0s-.06,0,0,0h0l0-.07c.18-.09,0,.06.05.1a4.8,4.8,0,0,0,.3-.48,1.69,1.69,0,0,0-.35.38,1.71,1.71,0,0,1,0-.3.34.34,0,0,1,.08.09c-.13-.27.1-.4.34-.2l0,0,0,0c.36.28.73.91,1.21.78,0,.06,0,.1,0,.13.35.08,1.05.41,1.34.32-.13.86,2,.73,1.66,1.37l.94.49-.07,0c.46.48,1.41.18,1.1.46a2.41,2.41,0,0,0,1.78.74l-.05.25c.27,0,1.05,1,2,1.28a.16.16,0,0,1-.14,0c1.08.3,1.91,1.88,2.7,1.32l.73.17c-.77-.53.31-.26.05-.58.44.14.62.82.24.44-.38.32.91.72.73,1,1.6.89,3,2,4.48,2.87v-.41c.23.06,1,.77.19.44.09.29.7.21.75.15.65.54-.49.2-.27.33l.31.15-.05-.07c.29-.08,1,0,1,.51,0,.06.72.43.8.51l-.12-.4c.36.05.6.37.46-.08.93,1.32,2.79,1.7,3.92,2.44-.09-.12,0-.44.4-.16-.48.47.64.69.75,1.3-.15-.45,1.25.63,1,0,.33.25-.1.23.09.51,1,.27,1.78,1.22,2.87,1.75.16-.78.45.28.58.43s.43-.32.66.16a23.26,23.26,0,0,1,6.16,3.82c-.2-.31,0-.21.21-.09-.12-.12.11-.18.14-.3l.31.34c-.1.11-.24.17-.26.06l.11,0c-.07,0-.19-.09-.07-.15a.2.2,0,0,0-.21,0h0c-.19.15-.21.68-.43.62a14.87,14.87,0,0,0-.4,3.66l.33-.17c.1.23-.06.84-.24.29-.18.19.24.47.32.46-.06.6-.45-.15-.43,0l.06.24,0-.06c.26.13.55.57.21.75,0,0,.13.58.12.66l.22-.28c.19.18.11.47.35.15-.38.4.47,1.75.5,2.07a2,2,0,0,1,.67.8.19.19,0,0,1,.37,0c-.63.29.12.69-.1,1.15.11-.36.68.72.76.13.15.24-.17.17-.15.43.63.34.92,1.21,1.65,1.66.07-.06,0-.25.26-.24,0,1.1.34.19.58.71,0-.09,0-.21.12-.18.93,1,2.37,1.18,3.57,1.71-.2.17-.22.54-.31.12-.3.82.3.1.37.72-1.11,0,.18,1.2-.23,2,.87-.48-.25,1.33.27,1.61,0,.06-.07.08-.1.08.11.34.17,1.09.39,1.29-.81.31.39,2.07-.35,2.07l0,1-.08,0c-.18.65.54,1.22.15,1.15a2.29,2.29,0,0,0,.25,1.86l-.24.08c.14.22-.38,1.39-.09,2.33a.17.17,0,0,1-.11-.1c.28,1-.67,2.53.21,2.92l.21.69c.07-.9.38.14.53-.23.09.43-.4.92-.27.41-.45-.16-.16,1.12-.47,1.1,0,1.77-.23,3.51-.25,5.17l.36-.19c.07.23-.16,1.22-.29.37-.2.22.17.69.25.71-.15.81-.42-.32-.43-.07l0,.34,0-.08c.21.21.47.9,0,1.08,0,0,0,.82,0,.92l.28-.29c.14.33,0,.69.31.35-.68,1.43-.09,3.17-.16,4.49.06-.14.38-.22.34.26-.65-.18-.28.88-.75,1.26.31-.34.07,1.37.52.82-.06.4-.25,0-.4.33.25,1-.17,2.1-.08,3.27.08,0,.22-.18.34.08-.91,1,.12.54-.23,1.25.32,1.15,0,4,.07,5.66-.17-.23-.64-.22-.31-.4-.67-.13,0,.31-.41.49-.26-1.05-.72.38-1.44.29.7.63-1,.18-.92.76q-.07,0-.09-.06c-.16.21-.58.55-.57.8-.6-.57-.88,1.12-1.37.61l-.51.52,0-.07a.75.75,0,0,0-.32.79c-.11,0-.11-.06-.13-.09-.58.39-.58.5-.62,1.16l-.23-.09c-.16.32-1,.79-.95,1.35a.19.19,0,0,1-.06-.12c-.43,1.18-1.16,1.16-.55,2.53.22-.58.35.19.55,0,0,.31-.55.49-.33.2-.41-.23-.35.7-.64.63a14.77,14.77,0,0,0-.4,3.66l.33-.18c.1.23-.06.84-.24.29-.18.19.24.47.32.47-.06.59-.45-.16-.43,0l.06.23,0-.06c.26.13.55.57.21.75,0,0,.13.58.12.66l.22-.28c.19.18.11.47.35.15a.49.49,0,0,0-.09.3,1.13,1.13,0,0,0-.65.28m16.7.67-.24-.18c.05.14.1.29.14.43-.23,0-.33-.09-.4-.34,0,.46-.08.26-.05.7l-.11-.16c-.07.06,0,.35-.17.26-.37-.16-.89.54-1.51.43.32.49-.31-.14-.17.27-.07-.12-.16-.16-.13-.3-.2.21-.41-.06-.48.33-.06-.13,0-.21,0-.28-.06.2-.15,0-.06-.12-.23.08-.16.49-.09.88-.18-.14-.24-.11-.29.16-.08-.12-.18-.24,0-.31-.1,0-.59-.09-.57.21a3.27,3.27,0,0,0-.61,0l.06.05c-.08.38-.18.08-.36.12v0c-.38-.3-.19.13-.55-.22v.23c-.11.49-.31-.34-.56-.19l.05.15c-.11.14-.36-.94-.17-.92-.21-.36-.12.29-.36.3,0-.17.17-.39,0-.46s-.59.36-.67,0c0,.14,0,.28-.15.31s-.19-.61-.51-.33a.18.18,0,0,1,0-.11c-.16,0-.44-.06-.63.08.38-.71-.89-.18-.42-.77l-.32-.24.06,0c-.14-.21-.32-.16-.52-.1,0-.08.08-.09.11-.12-.14-.37-.15-.37-.65-.4l.18-.17c-.18,0,0-.64-.39-.81a.23.23,0,0,1,.12,0c-.55-.81.43-.66-.91-1.14,0,.37-.38,0-.48.24-.09-.14.16-.44.25-.28l0,0c.46-.05,0-.48.36-.53a5.51,5.51,0,0,1,.16-2l-.36,0c0-.22.29-.39.3-.11.21-.06-.13-.28-.2-.3.24-.34.46.4.41,0l-.05,0c-.31-.17-.28-.44,0-.4,0,0,.09-.28.13-.32l-.3,0c-.1-.16.09-.25-.26-.22.46,0,.52-.84.76-1-.11-.25,0-.4.13-.58-.08,0-.36-.12-.23-.27.5.42.44-.13.91,0-.33-.12.25-.48-.21-.58.14-.08.19.15.38.17.06-.45.66-.46.95-.78,0-.08-.19-.13-.19-.29l.44.2c.05-.08-.22-.46.09-.3-.3-.23,2.12-1.31,2.51-.72-.15-.15-.07-.18,0-.2-.07,0,0-.2-.06-.32.14.09.28.17.41.27,0-.33.4,0,.43-.35l-.12.06a.89.89,0,0,0-.11-.66l.42,0a.28.28,0,0,1,0,.11,6.56,6.56,0,0,1,5.32,2.2s-.08.06-.1.07.15.06.15,0l.17.18c-.23,0-.61.48-.8.79a.29.29,0,0,1,.31-.06c-.06-.4.43-.66.23-.11.12-.19.37-.05.6-.18a7.15,7.15,0,0,1,.7,1.16.14.14,0,0,0-.08.05l.09.09c-.14.19-.36-.08-.39.1-.35-.08-.68-.33-.24-.55-.08.05-.08.21,0,.22-.16,0,.17-.5-.22-.38l-.1.24c-.21-.06-.55,0-.59-.23-.19.23.06,0-.16.31.3-.33.22.39.51,0-.28.32,0,.28-.25.59.09,0,.14-.14.16,0h.09s0,0,0,0c.13-.34.44,0,.58.08s-.12,0-.19.1l.21.05c-.2.1-.26.35-.45.21.11.16-.1.44.1.52,0,.1.28.15.1.12l.2.25h0c.07.31.46.58.11.91a.38.38,0,0,1,.07.36l-.18,0c.07.12-.21.35,0,.41-.5.1-.17.56-.29.76l.24.05a.9.9,0,0,0,0,.5c.56.06,0,.38-.13.66-.08-.05,0-.1,0-.13-.55.09.07.75-.39.85,0,.1,0,.13-.09.14v0c0,.05-.12,0-.17.05h.14a.49.49,0,0,0,0,.23l-.22-.1v0c-.15,0,.31.16.28.34-.35-.16,0,.26-.41.09.12.22-.11.46.14.71,0,0-.08,0-.05-.07s-.2.08-.17.23m1.61-1.24a2,2,0,0,1-.45-.65h.17c0-.09-.05-.18-.08-.27a3.54,3.54,0,0,1,.53.55c-.05.12-.11.24-.17.36m4.67-71.86c0-.1,0-.21,0-.32a.77.77,0,0,1,.22.27.33.33,0,0,0-.2,0M161.19,85.73a.5.5,0,0,1-.12.26c0-.15-.12-.33.12-.26m-.41,130.08a.33.33,0,0,1-.1.06c0-.14-.05-.27-.07-.4l.35-.09-.37,0c0-.13-.05-.26-.09-.39a1.69,1.69,0,0,1,.64-.08,2.55,2.55,0,0,1-.36.87m.06,1.56c0-.1,0-.21,0-.32a.87.87,0,0,1,.22.27.33.33,0,0,0-.2.05m59-36.33c0,.07-.19.84-.46.93,0-.14-.05-.27-.08-.4l.36-.09-.37,0-.09-.39a1.68,1.68,0,0,1,.64-.08M138,220.67l0-.09c.11.16,0,.12,0,.09m-58.72-33.9,0-.09c.12.16,0,.12,0,.09m8.85-32.63.07-.13c.06.28,0,.2-.07.13m-8.85-35.42,0-.1c.12.17,0,.13,0,.1M138,85.07l0-.1c.11.16,0,.13,0,.1m73.48,70.4v0c.09-.28.05-.18,0,0m9.41,26-.25,0a2.68,2.68,0,0,0-.38-.91l-.21.08c-.23-.26-.1-.83-.29-1.3.09,0,.11.13.1.23.27-.73-.8-1-.77-1.66a.3.3,0,0,1-.17-.29l0,0c0-.07,0-.18,0-.27a1.91,1.91,0,0,0,0,.2,1.61,1.61,0,0,0-.29-.32l.16-.18c-.06-.19-.15-.11-.28.09a.68.68,0,0,0-.24-.08c.24-.32-.34-.25-.12-.63-.26,0-.65-.53-1-.3,0,0,0-.09.09,0-.08-.16-.16-.32-.35-.35l.17-.26a5.15,5.15,0,0,0-.55,0c0-.28,0-.42.29-.44-.65-.11-.42-.2-1-.24l.14-.13c-.14-.1-.5-.05-.49-.24-.06-.54-1.46-1.06-2.2-1.74,0,.59-.32-.41-.52,0,0-.15-.1-.27.09-.32-.51,0-.64-.48-1.08-.2,0-.14.15-.16.13-.25-.22.11-.33-.11,0-.14-.44-.1-.61.17-.72.48a3,3,0,0,1-.07-1.08c-.32.21,0,.76,0,1.19-.17-.18-.3-.17-.5,0-.06-.14-.18-.29.13-.29l-.31-.09v-9.53a.13.13,0,0,0,0,.06h.11c0-.21-.07-.36-.12-.24v-.55c.17.34.78.1,1.12-.22-.08,0-.16,0-.27-.4-.34,1.12-.68.35-.25-.14-.22.19-.33-.47-.6-.54V157.4c.16.09,0-.27.06-.32.21-.26.29.55.39.18.1.35.67,1.35,0,1.48.09,0,.18-.36.09-.51.13.23-.41.84,0,1.09l.21-.38a2.53,2.53,0,0,1,.37,1.36c.3-.23,0-.12.31-.46-.42.3,0-1.24-.43-.76.4-.36.17-.62.51-1.08-.1,0-.19.16-.14-.24,0,0-.1-.08-.08-.12v0s-.1.21-.15.22c-.23-.21-.22-.85-.34-1.07.05-.25.12.1.22,0l-.17-.33c.21,0,.36-.65.49-.08a5.32,5.32,0,0,0,0-1.88l-.13-.81h0c0-.79-.36-1.63,0-2.54,0-.21-.31-.92.12-1.08-.06-.34.19-1,0-1.18.51-.37.11-1.66.2-2.27l-.25,0a5.53,5.53,0,0,0-.15-1.33l-.22,0c-.18-.44.15-1.14.13-1.85.08,0,.06.23,0,.36.44-1-.35-2.06,0-3a.09.09,0,0,0,0,.05c0-.12.08-.23.12-.34a.69.69,0,0,0-.12.22,3,3,0,0,0-.09-.59l.24-.09c0-.24-.06-.25-.3-.11a1.12,1.12,0,0,0-.14-.29c.38-.17-.13-.57.28-.81-.2-.14-.15-1.09-.56-1.21,0,0,.08-.07.08,0a1.08,1.08,0,0,0,0-.71l.29-.1-.4-.53c.18-.32.29-.45.52-.13-.35-.78-.13-.63-.48-1.29l.19,0a29.66,29.66,0,0,1,.28-4.69c-.56.26.26-.63-.18-.68.13-.08.21-.27.33,0-.14-.69.21-1-.16-1.51.13-.08.19.15.27.08-.15-.21,0-.49.14-.08a.74.74,0,0,0-.31-.68,1,1,0,0,1,.56-.18c-.3-.26-.68.27-1.08,0a.62.62,0,0,0,.09-.52,11,11,0,0,0,5.54-3.2s.08.07.08.08.1-.2,0-.2a2.85,2.85,0,0,0,.23-.26c0,.27.54.56,1,.6-.06-.06-.11-.1,0-.4-.65.38-.76-.18-.14-.23-.24,0-.06-.44-.24-.65l.3-.42.23.08-.11-.19-.12.11a11,11,0,0,0,.76-1.34c.1.1.11-.13.13-.17.27-.08.1.45.3.27,0,.32.09,1.19-.5.88.08,0,.28-.12.26-.26,0,.21-.65.29-.4.64l.31-.12c0,.3.09.79-.21,1,.33,0,0-.08.45-.09-.47,0,.49-.77-.07-.71.47,0,.38-.28.83-.43-.09,0-.22,0,0-.22a.47.47,0,0,1-.05-.1h0s0,0,0,0c-.47.28-.12-.62-.17-.76.12-.14.07.1.21.06,0-.09,0-.18-.07-.28.21.07.5-.3.47.14.25-.47.59-1,.47-1.31v-.6h.06c.15-.6-.12-1.24.31-1.83,0-.17-.23-.74.16-.78,0-.25.16-.77,0-.87.53-.34,0-1.28,0-1.71l-.25,0a2.86,2.86,0,0,0-.38-.91l-.21.08c-.23-.25-.1-.82-.29-1.3.09,0,.11.14.1.24.27-.73-.8-1-.77-1.66a.3.3,0,0,1-.17-.29l0,0c0-.07,0-.18,0-.27a.79.79,0,0,0,0,.2,1.61,1.61,0,0,0-.29-.32l.16-.18c-.06-.2-.15-.11-.28.09a1,1,0,0,0-.24-.09c.24-.31-.34-.24-.12-.62-.26,0-.65-.53-1-.3,0,0,0-.09.09,0-.08-.16-.16-.32-.35-.35l.17-.26a5.15,5.15,0,0,0-.55,0c0-.28,0-.42.29-.44-.65-.11-.42-.2-1-.24l.14-.13c-.14-.1-.5,0-.49-.24-.06-.54-1.46-1.06-2.2-1.74,0,.59-.32-.42-.52,0,0-.14-.1-.26.09-.31-.51,0-.64-.48-1.08-.2,0-.14.15-.16.13-.25-.22.11-.33-.12,0-.15-.52-.11-.66.29-.78.65-.2-.24-.33-.24-.56,0-.06-.14-.18-.29.13-.29-.16,0-1-.35-1.07,0a9.51,9.51,0,0,0-1.08-.06l.1,0c-.15.36-.31.09-.61.15v0c-.71-.23-.28.12-1-.11.3.84-.47.05-.93.28l.16.11c-.17.19-.73-.53-1-.54-.06,0,.06-.08.12-.13-.67-.14,0,.31-.41.49-.26-1-.72.38-1.44.29.7.63-1,.17-.92.76q-.07,0-.09-.06c-.16.21-.58.55-.57.8-.6-.58-.88,1.12-1.37.61l-.51.52,0-.07a.75.75,0,0,0-.32.79c-.11,0-.11-.06-.13-.1-.34.24-.48.37-.55.58L193,105l.06,0,0-.1c-.18-.1-.35-.12-.26,0l-.49-.29c.38,0,.47-.61.36-1.08-.05.07-.09.14-.5,0,.83.87,0,.76-.24.15.06.28-.58,0-.78.23l-2.79-1.6c.16-.09-.22-.18-.25-.21-.13-.32.63,0,.35-.25.36.09,1.53.11,1.3.79,0-.08-.23-.33-.41-.33.27,0,.54.78,1,.57l-.24-.38a2.76,2.76,0,0,1,1.4.38c0-.37-.12,0-.25-.51.05.53-1.1-.65-.9,0-.11-.53-.46-.47-.7-1,0,.09.05.25-.29,0,0,0-.11,0-.14,0v0s.14.19.12.24c-.29.09-.87-.25-1.12-.26s.15,0,.08-.2l-.38,0c.08-.21-.39-.64.18-.46a5.54,5.54,0,0,0-1.67-1l-.78-.29,0,0c-.9-.5-2.61-1.1-3.14-2-.34-.12-.83-.7-1.06-.6-.07-.63-1.42-1-1.92-1.34l-.14.2a6,6,0,0,0-1.26-.55l-.08.21c-.49-.08-.94-.73-1.58-1.07.09,0,.23.07.32.17-.68-.89-2-.75-2.66-1.54l0,0c-.11-.06-.15-.19-.24-.28a.7.7,0,0,0,.14.21,3,3,0,0,0-.57-.22l0-.25c-.19-.17-.26-.08-.25.2a.91.91,0,0,0-.32,0c0-.42-.57-.18-.58-.65-.23.09-1.05-.44-1.36-.14,0,0,0-.1.08,0a1.12,1.12,0,0,0-.64-.34l.06-.31-.67.07c-.2-.32-.26-.48.14-.51-.87-.09-.63-.21-1.39-.24l.13-.15a30.3,30.3,0,0,1-4-2.66c-.05.62-.43-.54-.7-.19,0-.16-.13-.32.12-.31-.68-.24-.81-.71-1.42-.64,0-.15.23-.09.21-.2-.26,0-.43-.26,0-.15-.63-.35-.9,0-1.14.29a1.14,1.14,0,0,0-.21-.25c.11-.12-.05-.75,0-.53v-.61h.06c.15-.61-.12-1.24.31-1.83,0-.17-.23-.74.16-.79,0-.25.16-.77,0-.87.53-.33,0-1.27,0-1.7l-.25,0a2.86,2.86,0,0,0-.38-.91l-.21.08c-.23-.26-.09-.82-.29-1.3.09,0,.11.13.1.24.27-.73-.8-1-.77-1.67a.28.28,0,0,1-.17-.28l0,0c0-.08,0-.18,0-.27a.7.7,0,0,0,0,.2,1.45,1.45,0,0,0-.3-.32l.16-.18c-.06-.2-.14-.12-.28.09a.7.7,0,0,0-.24-.09c.24-.32-.34-.25-.12-.62-.26,0-.65-.53-1-.31,0,0,0-.09.09,0-.08-.15-.16-.31-.35-.34l.17-.26a5.15,5.15,0,0,0-.55,0c0-.28,0-.43.29-.44-.65-.11-.42-.21-1-.24l.14-.14c-.14-.09-.5,0-.48-.23-.07-.55-1.47-1.06-2.21-1.74,0,.58-.32-.42-.52,0,0-.14-.1-.26.09-.31-.51,0-.64-.48-1.08-.2,0-.15.15-.16.13-.25-.22.11-.33-.12,0-.15-.52-.11-.66.28-.78.65-.2-.24-.33-.24-.55,0-.07-.14-.19-.3.12-.29-.16,0-1-.35-1.07,0-.39,0-.67,0-1.08,0l.1,0c-.15.36-.3.08-.61.14v0c-.71-.23-.28.12-1-.11.29.84-.48,0-.94.28l.16.1c-.17.2-.73-.52-1-.53-.06,0,.06-.08.12-.13-.66-.14,0,.31-.4.49-.27-1-.73.38-1.45.29.7.62-1,.17-.92.76a.13.13,0,0,1-.09-.06c-.16.21-.57.55-.57.8-.6-.58-.88,1.12-1.36.61l-.52.52,0-.07a.75.75,0,0,0-.32.78c-.11,0-.11-.05-.13-.09-.58.4-.58.51-.62,1.17l-.23-.09c-.16.32-1,.79-.95,1.35a.22.22,0,0,1-.06-.12c-.43,1.17-1.16,1.16-.55,2.53.23-.59.35.19.55,0,0,.3-.55.49-.32.19-.42-.22-.36.71-.65.63a14.87,14.87,0,0,0-.4,3.66l.34-.17c.09.23-.07.84-.25.29-.18.18.24.47.32.46-.09.7-.61-.49-.36.26l0-.06c.26.12.55.57.21.75,0,0,.13.58.12.66l.22-.29c.19.19.11.47.35.15a.55.55,0,0,0-.09.29.92.92,0,0,0-.53.26h.25c-.19.31-1.12-.15-1.43,0-.09,0,.06-.11.13-.19-.88.16.06.32-.45.69-.54-1-1,.78-1.92.84.85.52-1.32.47-1.3,1.07-.07,0-.11,0-.12,0-.25.26-.88.71-.95,1-.68-.54-1.65,1.4-2,.75l-.89.56,0-.07c-.64.15-.86,1.13-.94.71a2.43,2.43,0,0,0-1.53,1.17l-.19-.16c-.13.23-1.43.38-2.12,1.11a.15.15,0,0,1,0-.15c-.8.79-2.58.72-2.49,1.68l-.51.55c.84-.41.07.4.47.33-.34.31-1,.13-.5,0-.09-.48-1.08.43-1.21.15-1.57.93-3.24,1.6-4.73,2.44l.35.21c-.17.17-1.17.49-.48-.06-.29-.06-.53.5-.5.58-.8.29.07-.52-.15-.4l-.29.19h.09c-.08.28-.57.87-.94.6-.06,0-.74.41-.84.44l.4.09c-.22.28-.62.34-.16.44-1.61.15-2.86,1.56-4.07,2.17.15,0,.38.22-.07.43-.17-.66-.92.2-1.5,0,.47.09-1.17.76-.47.87-.38.15-.14-.2-.49-.18-.72.71-1.94.93-3,1.61.6.53-.47.25-.66.28s.06.54-.47.5c.07.5-2.07,1-2.64,1.65a.36.36,0,0,0-.25-.18l.17-.26a5.15,5.15,0,0,0-.55,0c0-.28,0-.42.29-.44-.64-.11-.42-.2-1-.24l.14-.13c-.14-.1-.5,0-.48-.24-.07-.54-1.47-1.06-2.2-1.74-.06.59-.33-.42-.53,0,0-.14-.1-.26.09-.31-.51,0-.64-.48-1.08-.2,0-.14.16-.16.13-.25-.22.11-.32-.12,0-.15-.51-.11-.66.29-.78.65-.2-.24-.33-.24-.55,0-.06-.14-.19-.29.13-.29-.17,0-1-.35-1.08,0a9.51,9.51,0,0,0-1.08-.06l.11,0c-.16.36-.31.09-.61.15v0c-.71-.23-.28.12-1-.11.29.84-.48.05-.94.28l.17.11c-.17.19-.74-.53-1-.54-.06,0,.06-.08.12-.13-.66-.14,0,.31-.4.49-.27-1-.73.38-1.45.29.71.63-1,.17-.91.76a.14.14,0,0,1-.1-.06c-.15.21-.57.55-.57.8-.6-.57-.88,1.12-1.36.61l-.52.52,0-.07a.75.75,0,0,0-.33.79c-.11,0-.11-.06-.13-.1-.57.4-.58.51-.62,1.17l-.23-.09c-.16.32-1,.79-.94,1.35a.16.16,0,0,1-.07-.12c-.43,1.17-1.16,1.16-.54,2.53.22-.58.34.19.54,0,0,.31-.54.49-.32.19-.41-.22-.36.71-.65.63a15.37,15.37,0,0,0-.4,3.66l.34-.17c.1.23-.07.84-.25.29-.18.19.24.47.32.47,0,.59-.44-.16-.43,0L79,118l0-.06c.26.13.55.57.21.75a5.08,5.08,0,0,0,.13.66l.21-.28c.19.18.12.47.36.15-.39.4.46,1.75.5,2.07a1.93,1.93,0,0,1,.66.8.19.19,0,0,1,.37,0c-.63.29.12.69-.1,1.15.11-.36.68.72.76.13.15.24-.17.17-.14.43.62.34.91,1.21,1.65,1.66.06-.06,0-.25.25-.24,0,1.1.34.19.59.71,0-.09,0-.21.11-.18a7.9,7.9,0,0,0,3.24,1.57c-.3.4.5,1.3.17,2,.87-.49-.26,1.4.27,1.69,0,.06-.07.08-.1.08.1.35.17,1.14.39,1.35-.81.32.39,2.18-.35,2.17l0,1.07-.08,0c-.19.64.55,1.33.15,1.2a2.51,2.51,0,0,0,.25,2l-.24.08c.14.23-.38,1.46-.1,2.44a.19.19,0,0,1-.11-.1c.29,1.1-.67,2.65.21,3.06l.22.73c.07-.95.38.14.53-.25.09.46-.41,1-.27.43-.46-.16-.16,1.18-.47,1.16,0,1.86-.23,3.68-.25,5.42l.35-.2c.07.23-.16,1.28-.28.39-.2.23.17.73.24.74-.14.85-.41-.33-.42-.07l0,.35,0-.08c.21.21.47.94,0,1.14,0,0,0,.86,0,1l.28-.3c.14.34,0,.72.3.36-.68,1.5-.08,3.33-.15,4.71.06-.14.37-.23.34.27-.66-.18-.29.92-.76,1.33.31-.36.08,1.43.52.86-.05.42-.24,0-.4.34.26,1-.16,2.2-.08,3.43.76-.26,0,.55-.08.73s.5.22.2.67c.38.87-.07,3.45.13,4.9-.18-.26-.72-.29-.38-.46-.66-.13,0,.31-.4.49-.27-1.05-.73.38-1.45.29.71.63-1,.18-.91.76a.14.14,0,0,1-.1-.06c-.15.21-.57.55-.57.8-.6-.57-.88,1.12-1.36.61l-.52.52,0-.07a.76.76,0,0,0-.32.79c-.11,0-.11-.06-.13-.09-.57.39-.58.5-.62,1.16l-.23-.09c-.16.32-1,.79-.94,1.35a.16.16,0,0,1-.07-.12c-.43,1.18-1.16,1.16-.54,2.53.22-.58.34.19.54,0,0,.31-.55.49-.32.2-.41-.23-.36.7-.65.63a15.26,15.26,0,0,0-.4,3.66l.34-.18c.1.24-.07.84-.25.29-.18.19.24.47.32.47,0,.59-.44-.16-.43,0l.07.23,0-.06c.26.13.55.57.21.75a5.08,5.08,0,0,0,.13.66l.21-.28c.19.18.12.47.36.15-.39.41.46,1.75.5,2.08a1.84,1.84,0,0,1,.66.79.19.19,0,0,1,.37,0c-.63.29.12.7-.1,1.16.11-.37.68.72.76.12.15.24-.17.17-.14.43.62.34.91,1.21,1.65,1.66.06-.06,0-.24.25-.24,0,1.1.34.19.59.71,1,.43,3.19,1.34,4.61,2-.2-.19-.05-.19.12-.17-.1-.05,0-.21,0-.32.21.13.43.29.65.41.15-.31.75,0,.83-.28l-.22,0c.16-.19,0-.41-.08-.65,3.57.72,6.35-2.3,9-2.87-.16.21,0,.26-.09.45.36-.4,0,.19.34,0l-.18.24.28-.13h0s-.05,0,0,0v0a.16.16,0,0,1,0-.07c.19-.09,0,.06.06.1a4.71,4.71,0,0,0,.29-.48,2,2,0,0,0-.35.38,1.67,1.67,0,0,1,0-.31.44.44,0,0,1,.13.14c-.11-.23,0-.41.29-.24l0,0,0,0c.37.26.75,1,1.26.82a.17.17,0,0,1,0,.13c.35.08,1,.4,1.34.32-.13.86,2,.72,1.66,1.36l.94.5-.07,0c.46.48,1.41.18,1.1.46a2.4,2.4,0,0,0,1.78.73l0,.26c.27,0,1,1,2,1.27a.19.19,0,0,1-.15,0c1.08.3,1.92,1.88,2.7,1.32l.73.17c-.77-.52.31-.26.06-.58.43.15.62.83.23.45-.37.31.92.71.74,1,1.59.89,3,2,4.48,2.87v-.4c.23.05,1,.76.19.43.09.29.7.21.75.15.65.54-.49.2-.27.33l.31.16,0-.08c.29-.08,1,0,1,.51,0,.06.73.43.8.51l-.12-.39c.36,0,.61.36.47-.09.93,1.33,2.78,1.7,3.92,2.44-.1-.12,0-.44.4-.16-.49.48.63.7.75,1.3-.16-.44,1.25.64,1,0,.33.25-.1.23.1.52,1,.27,1.78,1.21,2.87,1.74.16-.78.45.29.58.43s.43-.31.66.16a23.53,23.53,0,0,1,6.16,3.82c-.24-.3.13-.23.15-.05l0-.06,0,0c0-.47.33.15.45.05.07.28-.53.47-.29.18-.42-.23-.36.7-.65.63a14.77,14.77,0,0,0-.4,3.66l.34-.18c.09.23-.07.84-.25.3-.18.18.24.46.32.46-.06.59-.45-.16-.43,0l.07.23,0-.06c.26.13.55.57.21.75,0,0,.13.58.12.66l.22-.28c.19.18.11.47.35.15-.38.41.47,1.75.5,2.08a1.92,1.92,0,0,1,.67.79.19.19,0,0,1,.37,0c-.63.29.12.7-.1,1.16.11-.37.68.72.76.13.15.23-.17.17-.14.43.62.33.91,1.2,1.65,1.65.06-.06,0-.24.25-.24,0,1.1.34.19.58.71,1,.43,3.19,1.34,4.62,2-.2-.19,0-.19.12-.17-.1,0,0-.2,0-.32.21.13.42.29.65.41.15-.31.74,0,.83-.28l-.22,0c.16-.19,0-.41-.08-.65a11.13,11.13,0,0,0,8.72-3.49s.08.07.08.08.1-.2,0-.2a2.85,2.85,0,0,0,.23-.26c0,.27.54.56,1,.6-.06-.06-.11-.1,0-.39-.65.37-.75-.19-.13-.24-.25,0-.07-.44-.25-.64l.3-.43.23.08-.11-.19-.12.11a11,11,0,0,0,.76-1.34c.1.1.11-.13.13-.17.27-.07.11.46.3.27,0,.32.09,1.19-.5.88.08,0,.29-.12.26-.26,0,.21-.65.29-.4.64l.31-.12c0,.3.09.79-.21,1,.34,0,0-.08.45-.09-.47-.05.49-.77-.07-.71.47,0,.38-.28.83-.42-.09,0-.22,0,0-.23a.47.47,0,0,1-.05-.1h0s0,0,0,0c-.47.29-.11-.62-.17-.76.12-.14.07.11.21.06,0-.09,0-.18-.07-.28.21.07.5-.3.47.14.25-.47.59-1,.47-1.31v-.6h.06c.15-.61-.12-1.25.31-1.84,0-.17-.23-.74.16-.78,0-.25.16-.77,0-.87.53-.34,0-1.28,0-1.7l-.25,0a2.68,2.68,0,0,0-.38-.91l-.21.08c-.08-.11-.2-.37-.1-.53l0,.06a4.12,4.12,0,0,0-.09-.67l0,0v.1c-.13-.21,9.31-5.38,9.34-5.49l0,0,.07.09c.18-.11.28-.25.15-.23l.49-.28c-.22.32.29.72.75.85,0-.07-.07-.14.22-.44-1.16.28-.64-.41,0-.29-.28-.08.25-.52.18-.79l2.79-1.6c0,.18.26-.1.3-.12.34.05-.34.53,0,.43-.25.26-.84,1.27-1.33.73.06.07.41,0,.5-.19-.13.23-.94.08-1,.55l.44,0c-.27.33-.54.85-1,1,.35.14.08-.09.56,0-.48-.22,1.12-.63.46-.77.52.16.63-.17,1.21-.11-.06-.08-.24-.08.15-.25,0,0,0-.12.07-.12h0s-.23,0-.27,0c.07-.29.65-.62.78-.84s0,.15.14.18l.2-.32c.14.17.76,0,.31.39a5.71,5.71,0,0,0,1.69-1l.65-.53,0,0c.88-.53,2.24-1.71,3.29-1.72.28-.23,1-.36,1-.61.58.25,1.53-.76,2.11-1l-.1-.22a6.65,6.65,0,0,0,1.1-.82l-.13-.17c.3-.39,1.09-.45,1.7-.84,0,.1-.17.17-.31.2,1.11-.14,1.66-1.36,2.67-1.54a.08.08,0,0,0,0,0c.1-.07.24-.05.36-.08a1,1,0,0,0-.25,0,3.26,3.26,0,0,0,.47-.38l.2.16c.24-.08.2-.18,0-.31a1.35,1.35,0,0,0,.19-.27c.34.23.44-.41.85-.18,0-.25.9-.69.8-1.11,0,.05.1,0,0,.1a1.1,1.1,0,0,0,.61-.38l.24.2L194,195c.38,0,.55,0,.38.37.51-.7.49-.43.9-1.07l.07.18a29.91,29.91,0,0,1,4.31-2.16c-.28-.79,1,1.07,1.35,1.19.07-.06,0-.24.26-.24,0,1.1.34.19.58.71,1,.43,3.19,1.34,4.61,2-.19-.19,0-.19.13-.17-.1-.05,0-.21,0-.32.21.13.42.29.64.41.16-.31.75,0,.84-.28l-.22,0c.16-.19,0-.41-.08-.65a11.14,11.14,0,0,0,8.72-3.49s.08.07.08.08.1-.2,0-.2a2.85,2.85,0,0,0,.23-.26c0,.27.54.56,1,.6-.06-.06-.11-.1,0-.4-.65.38-.76-.18-.14-.23-.24,0-.06-.44-.24-.65q.15-.19.3-.42l.23.08-.11-.19-.12.11a11,11,0,0,0,.76-1.34c.1.1.11-.13.13-.17.27-.07.1.46.3.27,0,.32.09,1.19-.5.88.08,0,.28-.12.26-.26,0,.21-.65.29-.4.64l.31-.12c0,.3.09.79-.21,1,.33,0,0-.08.45-.09-.47,0,.49-.77-.07-.71.47,0,.38-.28.83-.42-.09,0-.22,0,0-.23a.47.47,0,0,1-.05-.1h0s0,0,0,0c-.47.29-.12-.62-.17-.76.12-.14.07.11.21.06,0-.09,0-.18-.07-.28.21.07.5-.3.47.14.25-.47.59-1,.47-1.31v-.6h.06c.15-.6-.12-1.24.31-1.83,0-.17-.23-.74.16-.78,0-.25.16-.77,0-.87.53-.34,0-1.28,0-1.71"/><path class="cls-3" d="M185.36,153.63c.08-.76.12-1.54.15-2.32a7.4,7.4,0,0,1-.15,2.32m.17-2.79s0-.12,0-.18v.18m-64.31-24.07.32-.29c-.55.78-.42.54-.32.29m-2.31,30.32c0,.3-.14.08-.36-.29.15.23.29.91.13.95-.1-.4-.19-.81-.28-1.21l.15.26a4.09,4.09,0,0,1-.27-2.14c.2.82.38,1.63.63,2.43m21.35,23c-.16.06-.14.23-.11.42-.51-.16-1-.33-1.51-.52.54,0,1.08.09,1.62.1m4.81.93a.37.37,0,0,0-.14.07c0-.06-.22-.11.14-.07m17.05-2.31c.85,0,1.51-.71,2.23-1.1a9.94,9.94,0,0,1-5.13,2.92,27.32,27.32,0,0,1,2.9-1.82m9.17-6c.62-.36,2.55-2.25,3.39-2.72-.47.58-1,1.15-1.46,1.7l-.31-.22c.24.85-1,1.36-1.47,2a.66.66,0,0,1-.15-.75M179,162.9c-.25.56-.51,1.11-.79,1.65.14-.49.32-1,.47-1.47,0,.1.2-.06.32-.18m1.56-18.43a15.29,15.29,0,0,1-.86-3.13c-.14-1.4.48-.21.58-.56a20.15,20.15,0,0,1,.77,4c-.05-.51-.1-1-.17-1.53a8.6,8.6,0,0,1,.5,2.44,3.78,3.78,0,0,0,0-.57,31.63,31.63,0,0,1,.13,8.69c-.52-2.21,0-7.68-.94-9.35m-1.19-3.14,0,0c.18,1,.12.63,0,0m7,10.37c0-.19-.47,3.15-.56,1.92a9,9,0,0,1,.32-2.43c-1.12-3.52-.72-9.1-2.58-13,.33-.26-1.18-.88-.86-1s1.65,1.26.88.29c1,1.37,2.05,3.45,1.7,5.23a5.43,5.43,0,0,0-.35-1.82c.37.82.28,3.1.77,3.91,0-.47,0-.95,0-1.42a17.16,17.16,0,0,1,.93,4.94c.24-.84,0-.41.19-1.72-.22,1.22-.58-4.54-.79-2.75.17-1.37-.24-2.27-.38-4,0,0,0,.17-.07.17s-.45-1.37-.53-1.4,0,.06,0,.09a4.46,4.46,0,0,1,.09.81c-.54-1.41-1.62-3.4-3.42-3-.37,0-.62.08-.29-.06.83-.46-1.26.29-1.34.71-.43-.06-1,1.21-1.17,1.2a2.33,2.33,0,0,1,.53-1.25c-1.83,1.63.61,6.8.56,7.55.2.91.36,1.83.49,2.75l-.06,0c1.12,8.19-2.48,16.21-7.68,22.43l.14.22c-1,1.08-1.86,2.12-3.16,3.35l.22.09a24,24,0,0,1-5.35,3.56,3.76,3.76,0,0,1,1.06-.62c-3.09,1.37-6.31,3.45-9.66,3.78l.16-.05a7.51,7.51,0,0,1-1.19.11,6.36,6.36,0,0,0,.78,0c-.5.09-1.25.28-2,.41-.32-.32-1.65-.13-.69.15a42.46,42.46,0,0,1-10.37-.26c-.41-.7-1.47-.3-2.19-.48-1-.52-1.43-.78-.3-.64a29.94,29.94,0,0,1-4.35-1.25l.18-.12c-4.13-1.73-9.58-6.6-12.07-10.92-.05,1-1.14-2.25-1.4-1.93,0-.3-.27-.9.21-.3-1.15-1.8-1.3-3.08-2.3-4.72,0-.3.35.42.35.16-.31-.45-.59-1.68,0-.31-.63-1.46-.61-2.19-1.62-2.52a7,7,0,0,0-.65-2.72c.07-.46.09-1.19.37.32-.31-1.45-.18-4-.56-5.34a33.85,33.85,0,0,1,.51-5.43l-.14.52c-.24-1.08.29-1.86.53-3.1l0,.06c1.13-3,.56-2.31,1.85-4.66l-.29.08c-.1-1.14,2-3.21,2.53-4.45l-.51.54c0-.52,4.22-4.17,2.68-2.33,1.76-1.63.17-.73,1.33-2.15,1.1.42,3.68-4,5.49-4.43-2.11.42,4.8-2.95,5.07-3,3-1.65,4.46-1.73,8.14-2.45,1.66-.34,3.22-.47,3.21-.1a28.7,28.7,0,0,1,3.59,0l-.1.07a29.57,29.57,0,0,0,3.92.26c.51.16.12.14.07.17,3,.53,5.87,2.45,8.27,1.93,3.78-2.16.64-5.72-2.68-6.09,0,0,.12,0,.39,0-4.1-1.49-9.18-2.69-13.12-1.76,3.29.07-.49.36.86.52-1.54.1-3.36-.3-1.5-.24.19-.61-3.54.15-4-.13A37.37,37.37,0,0,0,127,121l.78-.15c-.46.41-3.52,2.7-1.25.62a5.42,5.42,0,0,0-1.8,1.9c-2.26,2,.56-1.11-.1-.49l-.89.89.23-.17c-.63.88-1.67,2.48-2.68,3-.57.62-1.52,1.93-2.08,2.71l.85-.72c-.6,1-1.42,2.08-.49,1.22-3.28,3.42-5.48,10.69-6,15.14.12-.5.47-.74.21,1-.88-.09-.56,3.76-1,4.59.21-1.33.33,5,.67,3-.48,2.23.44,4.41.93,6.83.62,2,1.3,5.18,2.63,6,.15.55.51,1.67.71,2.21.47.73.82.42,1.42,1.9,3.94,5.91,12.5,12.65,20.56,15.17-1.08-.48-.33-.29.53,0-.54-.19.07-.2,0-.34a17.5,17.5,0,0,0,7.7,1.19l-1.14,0c.94-.14-.07-.49-.6-.71a35.94,35.94,0,0,0,38.68-29.11,1.49,1.49,0,0,0,0,.21l.11,0c.13-.73.16-1.27,0-.85.11-.64.2-1.29.27-1.93,0,1.19.75.43,1.19-.73-.08,0-.15-.06-.17-1.5"/><path class="cls-3" d="M167.41,133.9c.11-.05.13.09.12.29,0-.17.21-.3.31-.2l-.31.34v-.14c0,.32-.4.45-.62.51ZM176,125l-.39.43.06-.71a.79.79,0,0,0,.33.28m1.62-1.36a.18.18,0,0,0-.07.08s-.12-.08.07-.08m.11,5.95-.37.68a2.48,2.48,0,0,1,.94-2.1c-.07.45,0,1.38-.57,1.42m-4,3.8a.21.21,0,0,1-.14,0l.56-.61.28.23-.2-.32.54-.6a1,1,0,0,1,.39.55,11.19,11.19,0,0,1-1.43.76m-2,2.33c0-.07-.15-.07-.23-.06l.46-.51a2.26,2.26,0,0,1-.23.57m-3.19,4.11c-.49.69-.44.09-.5.24-.91.78-1,3.25-2.1,1.89.39-.58.84-.67,1.14-1l-.48.34a1.84,1.84,0,0,1,.57-.73.78.78,0,0,0-.21.12l2.19-2.41a3.56,3.56,0,0,1-.61,1.58m-1.77,2.74v0c.32-.21.2-.14,0,0M161,147.27h0l0,0Zm-.72.78.59-.65a1.33,1.33,0,0,1-.59.65m-21.6-3.53,0,.16c-.26-.23-.15-.19,0-.16m26.69-8.77c-.56.57-.85.94-1.39,1.53l.18-.11c.08.46-.34.5-.7,1l0,0c-1.1.81-.29.52-1.4,1.28.91.4-.77.73-1.15,1.47l.28-.12c-.15.43-1.29.41-1.62.68-.09,0,.05-.16.11-.27-1,.61.13.31-.37,1-.87-.74-1,1.39-2,1.85,1.09.1-1.43,1.2-1.24,1.77-.08,0-.12,0-.15,0a7.08,7.08,0,0,0-.86,1.53c-.87-.23-1.57,2.32-2.11,1.81l-.89,1,0-.08c-.7.47-.71,1.61-.92,1.24a3.86,3.86,0,0,0-1.47,2l-.26-.08c-.25.46-1.57,1.18-1.84,1.89a.28.28,0,0,1,0-.16,1,1,0,0,1-.45.49c-.34-.61-.13-.87-.94-.87l-.73-.61c.67,1-.42.09-.23.57-.43-.4-.44-1.23-.12-.6.49-.11-.78-1.29-.52-1.45-1.45-1.86-2.65-3.85-4-5.62l-.13.41c-.2-.15-.87-1.4-.07-.56,0-.35-.7-.63-.77-.6-.54-.94.59.09.39-.18l-.29-.34,0,.1c-.3-.08-1.11-.63-.92-1.11,0-.08-.65-.87-.71-1V144c-.37-.26-.55-.74-.53-.19-.58-3.07-5.25-2.77-5.19.5.19-.4.34-.09.37.39-.9,0,.38,1.53.29,2,0-.56,1.16,1.39,1.08.55.28.46-.18.17-.06.59,1,.85,1.56,2.32,2.58,3.51.38-.72.43.62.49.79.22.22.57-.07.68.56a38.88,38.88,0,0,1,5.5,7.62c-.12-.44.06-.22.26,0-.09-.19.17-.12.24-.23l.53,1.23c.44.14,1.25,1.3,1.71,1a2.47,2.47,0,0,1-.52-.18c.47,0,.18-.4.14-.71,2.12,2.89,12.44-12,13.9-12.66l-.05.06.1.06c.18-.2.26-.4.12-.31l.49-.54c-.18.44.48.61,1,.53-.05-.07-.11-.12.15-.58-1.32.9-.73-.17-.06-.31-.33.05.18-.68,0-.93l2.8-3.1c.05.19.28-.25.32-.27.4-.12-.27.73.13.44-.26.37-.59,1.71-1.35,1.43.07.05.45-.23.52-.44-.1.31-1.05.56-1,1.06l.49-.24a4.33,4.33,0,0,1-.94,1.6c.42,0,.08-.13.64-.24-.58,0,1.13-1.22.36-1.05.62-.08.68-.49,1.35-.72-.3,0,.06-.19.16-.5h0s-.26.14-.31.11c0-.35.6-1,.71-1.28s0,.17.19.11l.16-.44c.19.12.85-.39.43.26a9.91,9.91,0,0,0,1.71-1.85l.62-.89,0,0c1-1.1,2-2.75,3.36-3.47.26-.38,1.07-.89,1-1.17.71,0,1.58-1.57,2.19-2.11l-.17-.19a9.72,9.72,0,0,0,1.08-1.42l-.19-.11c.26-.56,1.14-1,1.75-1.74,0,.11-.16.27-.31.36,1.27-.77,1.61-2.25,2.75-3a.41.41,0,0,0,0,.09c.14-.19.33-.34.48-.56l-.34.36c.09-.19,1.12-2.33.36-1.56a1.55,1.55,0,0,0-.17-.55c.33-.49-.46-1-.44-1.55a3.14,3.14,0,0,0-3.34-.26l-.31-.18c-.2.39-1,1.71-1,.69-.43,1-.46.7-.79,1.59l-.11-.16a53.09,53.09,0,0,1-4.42,4.45c.66.12-.75.45-.47.79-.17,0-.39.13-.29-.17-.51.77-1.08.88-1.23,1.6-.17,0,0-.28-.14-.26,0,.28-.45.49-.17,0-.61.71-.37,1.05-.12,1.37a.9.9,0,0,0-.64.84c-.21,0-.49.15-.13-.31-.24.23-1.48,1.36-1.28,1.59"/><path class="cls-3" d="M271.92,105.9l-18.21,5.75L257,122l2.35-.74-2.46-7.8,5.66-1.79,2.3,7.3,2.33-.73-2.31-7.3,5.55-1.75,2.39,7.56,2.33-.74ZM263.51,87l-2.17,1,2.76,5.8L249,101.06l1.16,2.42,15.06-7.18,2.81,5.9,2.17-1Zm-8.35-12.93L239.21,84.6l6,9.08,2.06-1.35-4.49-6.84,5-3.26,4.2,6.4,2-1.34-4.21-6.4,4.87-3.2L259,84.32,261,83ZM245.09,61.82,230.54,74.19l7.22,8.48,1.9-1.61-5.46-6.42,12.65-10.75Zm-11.9-8L235,55.47c2.22,2,2.11,3.44.91,4.78s-2.6,1.77-4.92-.32l-1.84-1.66Zm-.39-3.59L220,64.42l2,1.8,5.54-6.16,1.92,1.73c3,2.7,6,3.14,8.47.35,2.25-2.5,1.92-5.54-.91-8.09Zm-20.17-14-10.43,16,2.26,1.47,8.11-12.46.84,9.37.42.27,8.86-3.05-8.11,12.46,2.25,1.46,10.42-16-2.09-1.36-9.48,3.19-.94-10Zm-16-4.57a7.12,7.12,0,0,1,4,9.37c-1.83,4.51-5.92,5.45-9.6,4a7.06,7.06,0,0,1-3.93-9.34,6.92,6.92,0,0,1,9.52-4m.9-2.42A9.8,9.8,0,1,0,190,47.32c6,2.45,11.26-.53,13.18-5.25a9.69,9.69,0,0,0-5.67-12.86m-21-6.29a9.89,9.89,0,0,0-11.83,7.7,9.64,9.64,0,0,0,8,11.52,13.81,13.81,0,0,0,7-.34l.57-2.94a11.79,11.79,0,0,1-7,.8,7.07,7.07,0,0,1-5.86-8.48,7.23,7.23,0,0,1,8.68-5.75,13.19,13.19,0,0,1,6,3.11l.55-2.83a15.77,15.77,0,0,0-6.13-2.79m-40.34-2,7.28,8.69.41,10.1,2.74-.11-.41-10.1,6.54-9.27-3.24.14-4.8,6.78-5.29-6.37ZM125,22.84l3.17,18.83,11-1.85-.41-2.45-8.31,1.4-2.76-16.38Zm-15.3,4L115,45.16l10.7-3.09L125,39.68,116.91,42,112.3,26.06ZM98,35.27l5.8,5.51-5.39,2.41Zm-2.37-3,.49,20.82L98.66,52l-.14-6.1,7.27-3.24,4.58,4.12,2.5-1.12L97.4,31.48ZM76.44,46.18l1.9-1.25c1.7-1.12,3.2-.83,4.22.71,1.4,2.13.23,3.5-1.4,4.57l-1.44.95Zm-3.57-.53,10.5,16,2.24-1.48L81,53.18l1-.67c1.1-.72,2.41-.88,5.65.61l5.07,2.3,2.65-1.75-5.55-2.45c-3.05-1.34-3.73-1.43-5.05-1.44a4.74,4.74,0,0,0,0-5.64c-1.54-2.34-4.55-3.38-7.67-1.33ZM55.52,61l7.56,8.07c3.85,4.1,7.77,4.07,11.56.52s3.71-7.75.15-11.54l-7.55-8-2,1.84,7.55,8.05c2.85,3,2.74,5.49.14,7.93s-5,2.49-7.93-.59l-7.56-8.07Zm-13,16.15,1.9,1.48,3.94-5.07L61.57,83.79l1.66-2.12L50.05,71.43l4-5.16-1.9-1.48Zm-2,10.5,7.94,1-2.92,5.12Zm-3.69-1,12.71,16.49L51,100.71l-3.73-4.84L51.19,89l6.13.61,1.36-2.38L37.84,85ZM25,114.59,43,121.14l.89-2.42-13.81-5L48.1,107l.8-2.19L31,98.3l-.89,2.42L44,105.8l-18.22,6.7Z"/><path class="cls-3" d="M248.43,201.87l17.51,7.62,1-2.37-13.48-5.86,18.44-5.54.93-2.14L255.34,186l-1,2.36,13.58,5.91-18.59,5.59Zm-5.07,12.27a7.12,7.12,0,0,1,10-1.92c4,2.75,4.06,6.94,1.81,10.23a7.07,7.07,0,0,1-10,1.85,6.93,6.93,0,0,1-1.86-10.16m-2.17-1.39A9.8,9.8,0,1,0,257.28,224c3.67-5.37,1.88-11.12-2.32-14a9.69,9.69,0,0,0-13.77,2.8m-9.89,12.78,14.2,12.77,1.8-2-14.2-12.77ZM218,238.09l1.61,1.8,4.79-4.28,11.11,12.45,2-1.79-11.12-12.45,4.87-4.35-1.6-1.8Zm-4.56,3,11.27,15.42,2.17-1.59-11.27-15.41Zm-10.91,9.48,2-1.13c1.76-1,3.25-.63,4.16,1,1.27,2.21,0,3.5-1.67,4.47l-1.5.86Zm-3.53-.75,9.48,16.57,2.34-1.33-4.14-7.22,1.05-.6c1.15-.65,2.46-.73,5.61,1l4.91,2.61,2.76-1.58-5.39-2.78c-3-1.53-3.64-1.66-4.95-1.75a4.78,4.78,0,0,0,.38-5.64c-1.4-2.43-4.34-3.65-7.58-1.79Zm-16.7,6.64.87,2.25,6-2.32,6,15.56,2.5-1-6-15.56,6.09-2.36-.87-2.24Zm-17.77,3.82,2.25,10.83c1.14,5.51,4.5,7.53,9.58,6.47,5.29-1.1,7.21-4.67,6.15-9.77L180.22,257l-2.63.54,2.24,10.81c.85,4.08-.52,6.11-4,6.84s-5.6-.5-6.46-4.64l-2.25-10.83Zm-21.21.9.54,19.09,2.58-.08L146,265.53l12.85,14.34,2.33-.07-.55-19.09-2.58.08.43,14.8-13-14.44Zm-28.9-5.71L109.8,274l2.61.65L116,260.25l3.88,8.57.48.12,7.36-5.8-3.56,14.44,2.61.64,4.58-18.54-2.43-.59-7.9,6.12-4.17-9.1Zm-18.23-8.07-4.53,10.09c-2.3,5.14-.77,8.74,4,10.87,4.94,2.21,8.59.45,10.72-4.3L110.81,254l-2.45-1.1L103.84,263c-1.71,3.8-4,4.64-7.27,3.18s-4.24-3.69-2.5-7.54l4.53-10.09Zm-17.5-12-11,15.62,2.2,1.54,8.55-12.16.51,9.4.4.28,9-2.73-8.56,12.16,2.2,1.55,11-15.62-2-1.44-9.58,2.85-.59-10Zm-5.08-5-13,14,2,1.83,12.94-14ZM61.15,217l-1.82,1.58,4.22,4.84L51,234.34l1.77,2,12.58-11,4.29,4.92,1.81-1.58Zm-7.81-7.58,1.35,2.06c1.65,2.5,1.17,3.86-.33,4.85s-3,1.06-4.67-1.56l-1.36-2.06Zm.53-3.57L37.92,216.29l1.47,2.25L46.32,214l1.42,2.15c2.21,3.37,5,4.55,8.1,2.49,2.81-1.85,3.26-4.88,1.17-8.06ZM46,194.92a7.13,7.13,0,0,1-3.71,9.49c-4.48,1.93-8-.27-9.62-3.92a7.07,7.07,0,0,1,3.75-9.42A6.93,6.93,0,0,1,46,194.92m2.33-1.1a9.8,9.8,0,1,0-18,7.64c2.58,6,8.4,7.52,13.08,5.5,5-2.15,7.33-7.67,5-13.14"/></svg>